<?xml version="1.0" encoding="utf-8"?>
<!-- Generator: Adobe Illustrator 16.0.0, SVG Export Plug-In . SVG Version: 6.00 Build 0)  -->
<!DOCTYPE svg PUBLIC "-//W3C//DTD SVG 1.1//EN" "http://www.w3.org/Graphics/SVG/1.1/DTD/svg11.dtd">
<svg version="1.1" id="Layer_1" xmlns="http://www.w3.org/2000/svg" xmlns:xlink="http://www.w3.org/1999/xlink" x="0px" y="0px"
	 width="257.314px" height="51.847px" viewBox="0 0 257.314 51.847" enable-background="new 0 0 257.314 51.847"
	 xml:space="preserve">
<g>
	<g>
		<path fill="#ffffff" d="M9.717,38.847V11.682h7.567v27.165H9.717z"/>
		<path fill="#ffffff" d="M22.252,38.847V11.682h7.024l11.176,14.358V11.682h7.451v27.165h-6.597L29.703,23.945v14.902H22.252z"/>
		<path fill="#ffffff" d="M52.715,38.847V11.682h11.642c3.467,0,6.215,0.848,8.247,2.542c2.031,1.695,3.046,4.03,3.046,7.005v0.078
			c0,3.104-1.1,5.537-3.298,7.295c-2.096,1.656-4.89,2.484-8.382,2.484h-3.726v7.762H52.715z M60.243,25.187h3.57
			c1.319,0,2.367-0.316,3.143-0.951c0.776-0.634,1.165-1.494,1.165-2.581v-0.078c0-2.38-1.449-3.57-4.347-3.57h-3.531V25.187z"/>
		<path fill="#ffffff" d="M78.832,38.847V11.682h7.528v10.167h9.663V11.682h7.528v27.165h-7.528V28.524H86.36v10.323H78.832z"/>
		<path fill="#ffffff" d="M140.609,38.847V11.682h7.024l11.177,14.358V11.682h7.45v27.165h-6.597l-11.604-14.902v14.902H140.609z"/>
		<path fill="#ffffff" d="M177.709,38.847V18.279h-8.15v-6.597h23.828v6.597h-8.15v20.568H177.709z"/>
		<path fill="#ffffff" d="M196.685,38.847V11.682h12.845c3.932,0,6.882,0.983,8.848,2.949c1.604,1.604,2.406,3.712,2.406,6.325
			v0.078c0,3.985-1.863,6.766-5.588,8.344l6.48,9.469h-8.692l-5.472-8.228h-3.299v8.228H196.685z M204.213,24.721h4.967
			c1.268,0,2.258-0.285,2.969-0.854c0.712-0.569,1.067-1.358,1.067-2.367v-0.078c0-2.147-1.358-3.221-4.075-3.221h-4.928V24.721z"/>
		<path fill="#ffffff" d="M232.426,38.847V28.679l-10.323-16.997h8.576l5.589,9.896l5.627-9.896h8.42l-10.322,16.881v10.284H232.426
			z"/>
	</g>
	<path fill-rule="evenodd" clip-rule="evenodd" fill="#ffffff" d="M120.276,41.64c0,0,0.652,0.254,0.969,0.199
		c0.289-0.052,5.412-0.272,9.539-3.136c0.199-0.136,0.397-0.505,0.397-0.505L120.276,41.64z"/>
	<path fill-rule="evenodd" clip-rule="evenodd" fill="#ffffff" d="M124.47,11.285c-0.055,0.012-0.055,0.103-0.079,0.152
		c-0.008,0.018-0.007,0.041-0.016,0.059c-0.022,0.043-0.034,0.15-0.055,0.216c-0.004,0.006-0.028,0.022-0.029,0.027
		c-0.009,0.082-0.082,0.212-0.135,0.314c-0.048,0.093-0.095,0.192-0.147,0.282c-0.075,0.129-0.199,0.252-0.301,0.385
		c-0.014,0.017-0.029,0.042-0.052,0.071c-0.045,0.058-0.086,0.107-0.165,0.18c-0.1,0.093-0.202,0.198-0.315,0.3
		c-0.073,0.067-0.188,0.129-0.309,0.209c-0.054,0.035-0.146,0.091-0.236,0.148c-0.101,0.065-0.178,0.116-0.338,0.184
		c-0.422,0.172-0.921,0.332-1.377,0.357c0,0.033,0.026,0.051,0.046,0.074c0.024,0.028,0.047,0.058,0.071,0.085
		c0.021,0.027,0.058,0.036,0.081,0.064c0.02,0.023,0.03,0.066,0.054,0.09c0.044,0.048,0.104,0.088,0.146,0.132
		c0.026,0.03,0.044,0.057,0.07,0.084c0.137,0.157,0.327,0.355,0.48,0.511c0.414,0.416,0.865,0.821,1.396,1.039
		c0.031,0.012,0.063,0.03,0.093,0.041c0.019,0.007,0.041-0.009,0.058,0c0.041,0.016,0.116,0.052,0.181,0.068
		c0.008,0.002,0.029,0,0.04,0.004c0.032,0.008,0.062,0.035,0.093,0.041c0.029,0.005,0.064-0.002,0.098,0.003
		c0.061,0.014,0.128,0.038,0.192,0.046c0.26,0.042,0.542,0.064,0.822,0.076c0.453,0.018,0.885-0.102,1.386-0.182
		c0.145-0.024,0.32-0.055,0.451-0.039c0.017,0.002,0.054,0.017,0.086,0.026c0.239,0.056,0.429,0.298,0.62,0.52
		c0.12,0.136,0.246,0.287,0.341,0.446c0.199,0.329,0.364,0.722,0.575,1.125c0.101,0.19,0.189,0.375,0.291,0.572
		c0.094,0.179,0.195,0.363,0.273,0.576c0.073,0.199,0.109,0.397,0.146,0.6c0.029,0.155,0.056,0.278,0.04,0.419
		c-0.004,0.045,0,0.1-0.009,0.128c-0.019,0.061-0.073,0.125-0.108,0.181c-0.03,0.047-0.045,0.089-0.085,0.134
		c-0.028,0.034-0.079,0.085-0.108,0.125c-0.008,0.013-0.037,0.02-0.046,0.034c-0.038,0.062-0.001,0.168-0.037,0.263
		c0.027,0.053,0.089,0.076,0.14,0.117c0.008,0.006,0.024,0.038,0.036,0.041c0.072,0.038,0.14,0.025,0.225,0.036
		c0.156,0.018,0.354,0.037,0.487,0.111c0.015,0.008,0.015,0.019,0.03,0.027c0.038,0.018,0.103,0.088,0.145,0.132
		c0.142,0.14,0.333,0.364,0.448,0.573c0.176,0.323,0.268,0.714,0.401,1.075c0.133,0.361,0.321,0.721,0.401,1.076
		c0.035,0.154,0.037,0.318,0.039,0.47c0.004,0.222,0.019,0.397-0.078,0.567c-0.066,0.115-0.193,0.219-0.291,0.31
		c-0.035,0.034-0.067,0.041-0.092,0.067c-0.063,0.067-0.07,0.162-0.113,0.27c0.033,0.055,0.07,0.081,0.107,0.127
		c0.03,0.042,0.051,0.096,0.088,0.135c0.051,0.051,0.111,0.075,0.174,0.105c0.058,0.025,0.119,0.039,0.182,0.064
		c0.039,0.021,0.083,0.055,0.127,0.084c0.008,0.006,0.02,0.021,0.031,0.027c0.052,0.036,0.1,0.049,0.156,0.111
		c0.068,0.076,0.113,0.186,0.178,0.32c0.05,0.104,0.115,0.227,0.148,0.348c0.033,0.125,0.041,0.259,0.051,0.396
		c0.026,0.35,0.026,0.754,0.056,1.133c0.009,0.121,0.03,0.26,0.026,0.389c0.002,0.007-0.021,0.035-0.021,0.043
		c0,0.014,0.02,0.031,0.02,0.046c0,0.01-0.024,0.038-0.024,0.043c0.002,0.054,0.001,0.155-0.015,0.224
		c-0.002,0.014-0.019,0.023-0.021,0.043c-0.007,0.024-0.023,0.078-0.034,0.117c-0.012,0.051-0.013,0.086-0.028,0.135
		c-0.01,0.039-0.053,0.137-0.082,0.188c-0.019,0.032-0.03,0.045-0.051,0.073c-0.017,0.02-0.027,0.054-0.035,0.064
		c-0.162,0.155-0.543,0.256-0.742,0.35c0.074,0.095,0.094,0.193,0.16,0.271c0.051,0.058,0.138,0.103,0.209,0.147
		c0.033,0.02,0.069,0.052,0.106,0.072c0.035,0.021,0.083,0.03,0.116,0.055c0.031,0.021,0.061,0.066,0.094,0.095
		c0.037,0.03,0.078,0.041,0.104,0.073c0.078,0.091,0.18,0.307,0.216,0.47c0.034,0.157,0.011,0.341-0.005,0.505
		c-0.021,0.188-0.022,0.443-0.051,0.646c-0.013,0.088-0.029,0.136-0.055,0.217c-0.05,0.148-0.15,0.373-0.289,0.471
		c-0.117,0.083-0.281,0.092-0.433,0.141c-0.142,0.047-0.261,0.137-0.413,0.137c0.131,0.277,0.35,0.285,0.548,0.431
		c0.028,0.022,0.056,0.052,0.088,0.08c0.063,0.056,0.159,0.173,0.212,0.308c0.064,0.164,0.074,0.344,0.094,0.512
		c0.058,0.498-0.018,0.882-0.053,1.365c-0.019,0.262-0.029,0.576-0.093,0.892c-0.011,0.058-0.037,0.144-0.056,0.218
		c-0.062,0.262-0.135,0.566-0.533,0.697c-0.032,0.008-0.061,0.002-0.094,0.01c-0.037,0.012-0.039,0.033-0.063,0.039
		c-0.219,0.066-0.384,0.081-0.599,0.105c-0.069,0.008-0.153,0.033-0.254,0.047c-0.069,0.009-0.159-0.023-0.22,0.035
		c-0.019,0.019-0.016,0.066-0.057,0.107c-0.127,0.137-0.34,0.172-0.62,0.258c-0.166,0.049-0.308,0.137-0.461,0.168
		c-0.136,0.026-0.296-0.009-0.428-0.006c-0.187,0.006-0.432,0.07-0.681,0.15c-0.128,0.043-0.407,0.091-0.478,0.171
		c-0.067,0.081-0.123,0.229-0.28,0.292c-0.137,0.053-0.343,0.093-0.541,0.158c-0.33,0.107-0.567,0.266-0.808,0.172
		c-0.052,0-0.065-0.034-0.093-0.041c-0.104-0.032-0.367,0.084-0.548,0.143c-0.157,0.051-0.382,0.098-0.478,0.172
		c-0.158,0.127-0.3,0.277-0.521,0.369c-0.114,0.047-0.269,0.068-0.421,0.118c-0.244,0.078-0.43,0.196-0.651,0.175
		c-0.05-0.023-0.089-0.064-0.157-0.056c-0.171,0.084-0.4,0.209-0.615,0.327c-0.215,0.115-0.494,0.223-0.708,0.229
		c-0.151,0.006-0.24-0.035-0.366-0.097c-0.018-0.007-0.048-0.005-0.063-0.015c-0.015-0.008-0.02-0.033-0.035-0.041
		c-0.039-0.024-0.083-0.03-0.117-0.053c-0.03-0.021-0.054-0.055-0.089-0.08c-0.237-0.181-0.495-0.414-0.724-0.646
		c-0.29-0.293-0.576-0.563-0.856-0.892c-0.21-0.244-0.505-0.633-0.532-0.959c-0.007-0.07,0.016-0.156,0.031-0.227
		c0.017-0.072,0.054-0.143,0.079-0.206c0.027-0.069,0.064-0.136,0.078-0.204c0.016-0.076,0.011-0.145,0.008-0.238
		c-0.031-0.035-0.097,0.016-0.178,0.041c-0.143,0.049-0.271,0.084-0.398,0.131c-0.123,0.043-0.206,0.058-0.305,0.062
		c-0.137,0.007-0.211-0.017-0.366-0.097c-0.198-0.1-0.318-0.205-0.491-0.379c-0.039-0.041-0.082-0.08-0.123-0.121
		c-0.057-0.059-0.115-0.114-0.181-0.176c-0.102-0.096-0.311-0.31-0.382-0.451c-0.134-0.271-0.12-0.506-0.066-0.698
		c0.011-0.041,0.018-0.082,0.033-0.119c0.019-0.051,0.035-0.094,0.061-0.146c0.009-0.018,0.009-0.041,0.017-0.061
		c0.051-0.1,0.016-0.277-0.029-0.439c-0.169,0.006-0.454,0.121-0.669,0.129c-0.046,0.002-0.059,0-0.099-0.004
		c-0.121-0.012-0.18-0.031-0.284-0.09c-0.022-0.01-0.046-0.027-0.075-0.047c-0.029-0.019-0.063-0.019-0.093-0.041
		c-0.023-0.017-0.037-0.047-0.065-0.068c-0.021-0.016-0.054-0.032-0.076-0.047c-0.014-0.01-0.019-0.033-0.035-0.043
		c-0.008-0.006-0.034,0-0.04-0.006c-0.024-0.019-0.044-0.062-0.071-0.084c-0.054-0.049-0.139-0.111-0.204-0.187
		c-0.092-0.103-0.161-0.224-0.243-0.334c-0.128-0.173-0.239-0.327-0.381-0.505c-0.182-0.227-0.465-0.526-0.589-0.852
		c-0.083-0.213-0.123-0.438-0.117-0.572c0.004-0.135,0.052-0.234,0.105-0.342c0.058-0.115,0.11-0.22,0.152-0.318
		c-0.03-0.125,0.003-0.223-0.033-0.35c-0.036-0.047-0.08-0.056-0.129-0.084c-0.047-0.029-0.065-0.055-0.138-0.062
		c-0.126-0.016-0.239-0.012-0.384-0.038c-0.018-0.004-0.031-0.017-0.047-0.021c-0.046-0.01-0.096-0.004-0.144-0.025
		c-0.017-0.006-0.037-0.027-0.052-0.038c-0.025-0.013-0.043-0.03-0.075-0.045c-0.059-0.028-0.162-0.151-0.218-0.218
		c-0.108-0.125-0.203-0.268-0.289-0.41c-0.186-0.312-0.291-0.68-0.43-1.047c-0.175-0.471-0.389-0.936-0.444-1.348
		c-0.019-0.145-0.023-0.304-0.017-0.463c0.002-0.061,0-0.111,0.014-0.168c0.005-0.014-0.004-0.035,0-0.054
		c0.002-0.005,0.028-0.021,0.029-0.026c0.017-0.171,0.201-0.314,0.335-0.451c0.062-0.063,0.088-0.065,0.12-0.147
		c0.008-0.021,0.04-0.144,0.026-0.188c-0.029-0.092-0.109-0.086-0.164-0.18c-0.223-0.074-0.481-0.078-0.668-0.232
		c-0.12-0.1-0.25-0.313-0.359-0.494c-0.037-0.062-0.079-0.125-0.106-0.182c-0.166-0.328-0.235-0.689-0.321-1.064
		c-0.078-0.348-0.171-0.711-0.262-1.067c-0.087-0.343-0.189-0.689-0.192-1.034c0-0.075,0.008-0.161,0.009-0.237
		c0.002-0.227,0.02-0.528,0.17-0.685c0.106-0.111,0.267-0.184,0.46-0.274c0.23-0.112,0.565-0.273,0.799-0.405
		c0.186-0.106,0.366-0.246,0.532-0.39c0.075-0.065,0.139-0.144,0.212-0.213c0.076-0.07,0.17-0.13,0.234-0.202
		c0.015-0.016,0.018-0.045,0.034-0.064c0.031-0.036,0.078-0.065,0.114-0.11c0.038-0.046,0.083-0.123,0.126-0.185
		c0.012-0.017,0.044-0.035,0.057-0.052c0.01-0.017,0.006-0.045,0.016-0.061c0.028-0.042,0.066-0.077,0.092-0.12
		c0.022-0.039,0.031-0.084,0.049-0.124c0.061-0.13,0.117-0.248,0.163-0.395c0.152-0.479,0.178-1.062,0.211-1.616
		c0.009-0.145,0.012-0.291,0.024-0.456c0.003-0.046,0.024-0.094,0.027-0.137c0.003-0.044-0.006-0.109-0.002-0.16
		c0.01-0.136,0.029-0.291,0.047-0.447c0.016-0.143,0.019-0.298,0.045-0.445c0.005-0.023,0.031-0.043,0.034-0.066
		c0.004-0.026-0.011-0.046-0.006-0.07c0.004-0.02,0.029-0.041,0.034-0.065c0.009-0.045,0.01-0.092,0.021-0.152
		c0.011-0.053,0.026-0.083,0.044-0.139c0.045-0.141,0.1-0.31,0.18-0.454c0.049-0.089,0.088-0.171,0.142-0.244
		c0.111-0.154,0.257-0.288,0.422-0.425c0.156-0.129,0.338-0.265,0.563-0.363c-0.441,0.101-0.879,0.254-1.214,0.124
		c-0.375-0.144-0.618-0.564-0.862-1.013c-0.426-0.784-0.75-1.633-1.107-2.447c-0.098-0.22-0.175-0.419-0.28-0.592
		c-0.132-0.219-0.335-0.355-0.453-0.59c-0.127-0.259-0.177-0.554-0.153-0.724c0.059-0.444,0.602-0.734,1.168-0.974
		c0.427-0.181,0.947-0.329,1.341-0.508c0.291-0.133,0.654-0.214,0.985-0.321c0.931-0.303,1.949-0.618,2.802-0.749
		c0.599-0.093,1.126-0.089,1.58,0.078c0.459,0.171,0.833,0.435,1.269,0.649c0.343-0.134,0.691-0.221,1.032-0.246
		c0.159-0.011,0.32-0.029,0.473-0.028c0.148,0,0.297,0.023,0.441,0.037c0.281,0.026,0.552,0.099,0.823,0.181
		c0.064,0.02,0.131,0.034,0.198,0.062c0.064,0.027,0.125,0.056,0.186,0.083c0.174,0.078,0.323,0.14,0.477,0.24
		c0.044,0.029,0.074,0.06,0.128,0.084c0.019,0.01,0.033,0.029,0.053,0.037c0.003,0.002,0.021,0.01,0.023,0.011
		c0.036,0.025,0.057,0.058,0.089,0.079c0.034,0.024,0.087,0.032,0.115,0.053c0.032,0.023,0.06,0.053,0.088,0.079
		c0.056,0.05,0.101,0.12,0.164,0.18c0.014,0.013,0.036,0.021,0.053,0.037c0.094,0.097,0.198,0.191,0.293,0.319
		c0.077,0.103,0.155,0.207,0.235,0.319c0.066,0.093,0.135,0.248,0.208,0.4c0.043,0.091,0.106,0.182,0.142,0.277
		c0.069,0.188,0.09,0.398,0.146,0.6 M111.207,8.299c-0.058,0.046-0.126,0.086-0.208,0.121c-0.016,0.031,0.08,0.125,0.049,0.182
		c0.161-0.107,0.354-0.198,0.504-0.309C111.428,8.311,111.32,8.299,111.207,8.299 M119.999,7.506
		c0.179,0.095,0.386,0.186,0.547,0.272c0.039,0.02,0.078,0.033,0.117,0.052c0.076,0.037,0.144,0.088,0.221,0.125
		c0.148,0.072,0.3,0.14,0.447,0.214c0.225,0.111,0.458,0.221,0.664,0.324c0.154,0.077,0.305,0.143,0.449,0.214
		c0.154,0.076,0.305,0.143,0.448,0.214c0.157,0.079,0.307,0.154,0.454,0.23c0.075,0.039,0.162,0.064,0.221,0.126
		c0.023-0.004,0.044,0.013,0.029-0.028c-0.06-0.138-0.138-0.296-0.202-0.384c-0.063-0.087-0.107-0.147-0.159-0.218
		c-0.061-0.083-0.132-0.136-0.187-0.191c-0.02-0.018-0.028-0.044-0.042-0.058c-0.016-0.016-0.038-0.024-0.052-0.037
		c-0.07-0.067-0.127-0.15-0.194-0.207c-0.062-0.052-0.157-0.094-0.227-0.141c-0.058-0.039-0.116-0.084-0.157-0.112
		c-0.14-0.095-0.286-0.14-0.449-0.213c-0.138-0.063-0.268-0.12-0.407-0.156c-0.03-0.008-0.074-0.012-0.103-0.019
		c-0.02-0.006-0.031-0.016-0.047-0.022c-0.02-0.005-0.037,0.006-0.058,0.001c-0.031-0.007-0.063-0.036-0.092-0.042
		c-0.039-0.007-0.09-0.01-0.123-0.013c-0.079-0.011-0.159-0.006-0.238-0.013c-0.107-0.01-0.214-0.034-0.3-0.029
		c-0.195,0.012-0.449,0.031-0.612,0.074C119.95,7.504,119.981,7.496,119.999,7.506 M123.087,10.278
		c0.003,0.045-0.041,0.097-0.05,0.124c-0.006,0.017,0.006,0.037,0,0.054c-0.01,0.025-0.039,0.04-0.052,0.071
		c-0.005,0.016,0.006,0.04,0.002,0.054c-0.012,0.033-0.052,0.057-0.068,0.075c-0.065,0.071-0.134,0.144-0.195,0.207
		c-0.073,0.078-0.16,0.121-0.246,0.171c-0.007,0.003-0.033,0.044-0.041,0.049c-0.019,0.012-0.049,0.011-0.068,0.024
		c-0.006,0.002-0.032,0.043-0.04,0.046c-0.02,0.014-0.049,0.013-0.07,0.024c-0.005,0.003-0.031,0.044-0.039,0.049
		c-0.072,0.043-0.166,0.076-0.248,0.116c-0.245,0.123-0.493,0.244-0.776,0.361c-0.557,0.23-1.137,0.425-1.721,0.632
		c-0.362,0.128-0.746,0.227-1.072,0.348c-0.024,0.01-0.128,0.013-0.108,0.072c0.088,0.057,0.208,0.016,0.294,0.012
		c0.008,0,0.037,0.02,0.047,0.021c0.089,0.004,0.191,0.003,0.255,0.007c0.13,0.007,0.201,0.04,0.318,0.076
		c0.077,0.025,0.172,0.038,0.239,0.066c0.075,0.032,0.146,0.086,0.221,0.127c0.08,0.045,0.155,0.078,0.221,0.125
		c0.075,0.053,0.152,0.119,0.222,0.18c0.113,0.097,0.183,0.191,0.31,0.204c0.092,0.011,0.18-0.011,0.284-0.02
		c0.123-0.008,0.261,0.005,0.363-0.009c0.09-0.016,0.197-0.057,0.3-0.08c0.101-0.023,0.216-0.035,0.288-0.059
		c0.082-0.026,0.166-0.082,0.248-0.116c0.162-0.069,0.301-0.122,0.395-0.182c0.09-0.057,0.165-0.104,0.237-0.149
		c0.092-0.058,0.149-0.125,0.205-0.176c0.021-0.017,0.05-0.026,0.063-0.038c0.018-0.014,0.026-0.036,0.04-0.049
		c0.071-0.063,0.206-0.15,0.235-0.202c0.021-0.036,0.04-0.064,0.062-0.091c0.066-0.084,0.116-0.146,0.171-0.219
		c0.096-0.123,0.164-0.232,0.232-0.363c0.061-0.114,0.114-0.227,0.136-0.313c0.003-0.013,0.019-0.031,0.022-0.044
		c0.068-0.227,0.149-0.462,0.148-0.695c-0.264-0.211-0.511-0.452-0.784-0.646c-0.004-0.009-0.009-0.018-0.022-0.01
		C123.083,10.177,123.048,10.212,123.087,10.278"/>
	<path fill-rule="evenodd" clip-rule="evenodd" fill="#ffffff" d="M122.792,10.37c1.38,0.506,7.492,5.945,14.742,16.311
		c0.806,1.152-2.917-5.487-8.082-11.893c-3.564-4.419-5.421-5.225-5.992-5.622C123.078,8.943,122.792,10.37,122.792,10.37"/>
	<path fill-rule="evenodd" clip-rule="evenodd" fill="#ffffff" d="M119.246,7.162c-0.061,0.055-0.204,0.133-0.293,0.131
		C119.028,7.24,119.145,7.204,119.246,7.162"/>
	<path fill-rule="evenodd" clip-rule="evenodd" fill="#ffffff" d="M120.745,9.038c0.044,0.013,0.104-0.002,0.13,0.046
		C120.83,9.071,120.771,9.086,120.745,9.038"/>
	<path fill-rule="evenodd" clip-rule="evenodd" fill="#ffffff" d="M121.516,9.267c0.02-0.046,0.108,0.006,0.131,0.045
		C121.597,9.31,121.565,9.268,121.516,9.267"/>
	<path fill-rule="evenodd" clip-rule="evenodd" fill="#ffffff" d="M125.241,16.548c0.013-0.059,0.087-0.008,0.136-0.043
		C125.368,16.552,125.274,16.542,125.241,16.548"/>
	<path fill-rule="evenodd" clip-rule="evenodd" fill="#ffffff" d="M117.363,19.2c-0.259,0.228-0.805,0.295-0.807,0.744
		c-0.001,0.176,0.066,0.41,0.122,0.635c0.157,0.627,0.326,1.182,0.575,1.998c0.19,0.621,0.309,1.16,0.871,1.263
		c1.135-0.195,1.786-0.314,2.832-0.62c0.237-0.004,0.647-0.091,0.821-0.249c0.058-0.003,0.164,0,0.169-0.056
		c0.109,0.199,0.078,0.369,0.196,0.523c-0.581,0.264-1.328,0.492-1.939,0.721c-0.818,0.305-1.273,0.254-2.07,0.508
		c-0.066-0.121-0.366,0.088-0.315-0.018c-0.217-0.074-0.369-0.072-0.476-0.306c-0.441-0.964-0.875-2.269-1.104-3.213
		c-0.021-0.083-0.029-0.185-0.044-0.271c-0.055-0.315-0.096-0.523-0.041-0.822C116.367,19.674,116.74,19.381,117.363,19.2"/>
	<path fill-rule="evenodd" clip-rule="evenodd" fill="#ffffff" d="M127.27,22.444c0.056,0.039,0.081,0.138,0.128,0.189
		c-0.052,0.01-0.075-0.036-0.114-0.05C127.267,22.508,127.281,22.489,127.27,22.444"/>
	<path fill-rule="evenodd" clip-rule="evenodd" fill="#ffffff" d="M118.194,25.63c0.236,0.631,0.467,1.445,0.743,2.014
		c0.195,0.402,0.296,1.031,0.689,1.262c0.482,0.107,1.201-0.182,1.644-0.279c0.709-0.158,1.406-0.377,2.017-0.69
		c0.225-0.109,0.358-0.248,0.533-0.407c0.203,0.223,0.134,0.457,0.255,0.684c-0.817,0.375-1.623,0.554-2.574,0.908
		c-0.24,0.09-0.5,0.156-0.752,0.227c-0.218,0.058-0.42,0.074-0.594,0.193c-0.307,0.051-0.672,0.209-0.92-0.02
		c-0.09-0.084-0.119-0.256-0.188-0.4c-0.43-0.896-0.875-2.164-1.116-3.246C118.002,25.712,117.949,25.557,118.194,25.63"/>
	<path fill-rule="evenodd" clip-rule="evenodd" fill="#ffffff" d="M119.651,30.38c0.125,0.078,0.144-0.032,0.249-0.045
		c0.356-0.049,0.512,0.371,0.72,0.6c0.117,0.312,0.356,0.611,0.489,0.906c0.129,0.281,0.214,0.86,0.612,0.975
		c0.377,0.107,1.027-0.057,1.424-0.163c0.214-0.055,0.421-0.106,0.646-0.155c0.239-0.054,0.484-0.067,0.719-0.162
		c0.667-0.271,0.488-1.334,0.36-1.842c-0.035-0.141-0.06-0.264-0.153-0.359c0.01-0.188-0.145-0.465-0.015-0.65
		c0.187,0.402,0.383,0.975,0.545,1.562c0.108,0.393,0.213,0.815,0.205,1.16c0.037,0.041,0.03,0.111,0.071,0.189
		c-1.322,0.574-2.735,1.074-4.316,1.386C120.461,32.589,120.013,31.566,119.651,30.38"/>
	<path fill-rule="evenodd" clip-rule="evenodd" fill="#ffffff" d="M124.552,10.037c0.024,0.455,0.049,0.91-0.065,1.302
		 M124.476,11.361c-0.299,1.285-1.484,2.644-3.465,2.851c0.489,0.574,1.078,1.269,1.684,1.707c0.024,0.018,0.065,0.034,0.103,0.075
		c0.002,0-0.186-0.108-0.246-0.151c-0.225-0.168-0.464-0.402-0.696-0.593c-0.29-0.36-0.607-0.655-0.919-1.032
		c-0.341,0.021-0.719,0.039-1.041-0.035c-0.289-0.066-0.603-0.282-0.904-0.435c-0.479-0.241-0.911-0.31-1.243-0.733
		c-0.415,0.129-1.054,0.263-1.415,0.391c-1.083,0.381-2.052,0.599-2.507,1.189c-0.444,0.576-0.135,1.422-0.072,2.049
		c0.051,0.507,0.075,1.128-0.01,1.656c-0.017,0.103-0.081,0.209-0.109,0.319c-0.03,0.119-0.027,0.224-0.069,0.325
		c-0.157,0.381-0.376,0.667-0.582,1.042c-0.251,0.185-0.312,0.445-0.577,0.596c-0.215,0.123-0.53,0.237-0.779,0.362
		c-0.088,0.044-0.156,0.11-0.231,0.145c-0.411,0.197-1.013,0.352-0.96,0.793c0.034,0.272,0.178,0.758,0.265,1.069
		c0.182,0.633,0.327,1.392,0.553,1.987c0.15,0.396,0.327,0.991,0.811,1.104c0.152-0.032,0.352-0.011,0.528-0.011
		c0.086-0.076,0.116-0.152,0.244-0.116c-0.374-0.832-0.626-1.935-0.851-2.992c-0.12-0.56-0.306-1.332-0.037-1.729
		c0.077-0.115,0.243-0.199,0.365-0.297c0.116-0.095,0.194-0.245,0.302-0.313c0.081-0.048,0.152-0.03,0.227-0.054
		c0.226-0.071,0.439-0.218,0.758-0.212c-0.398,0.39-1.202,0.413-1.521,0.869c0.04,0.588,0.33,1.242,0.511,1.931
		c0.175,0.659,0.457,2.054,0.921,2.245c0.343,0.141,0.312,0.107,0.688,0.156c0.352,0.047,0.613-0.061,0.982-0.039
		c0.206,0.011,0.641-0.156,0.992-0.225c0.179-0.035,0.676-0.195,0.811-0.103c-1.182,0.51-2.373,0.778-3.517,1.285
		c0.064,0.13,0.252,0.024,0.354,0.081c0.002,0.156-0.13,0.213-0.137,0.347c-0.011,0.258,0.258,0.627,0.43,0.89
		c0.177,0.269,0.14,0.508,0.226,0.74c0.157,0.419,0.229,0.936,0.562,1.262c0.311,0.303,0.794,0.598,1.079,0.642
		c0.192,0.03,0.463,0.04,0.619,0.044c0.299,0.005,0.417-0.15,0.737-0.203c0.136-0.023,0.366-0.105,0.492-0.124
		c0.157-0.022,0.372-0.069,0.524-0.108c0.271-0.07,0.374-0.209,0.599-0.095c-1.151,0.496-2.585,0.914-3.572,1.343
		c0.005,0.051,0.129,0.11,0.211,0.107c-0.017,0.061-0.038,0.133,0.053,0.143c-0.085,0.483,0.23,0.678,0.547,1.213
		c0.55,0.773,0.779,1.105,1.522,1.549c0.445,0.209,0.972-0.019,1.619-0.159c0.312-0.07,0.65-0.195,1.096-0.296
		c0.319,0.016,0.481-0.071,0.661,0.044c-1.143,0.511-2.133,0.862-3.195,1.181c-0.011,0.077,0.131,0.094,0.174,0.158
		c-0.067,0.05,0.018,0.092,0.036,0.148c0.038,0.114,0.034,0.24,0.113,0.354c0.106,0.151,0.24,0.342,0.393,0.481
		c0.284,0.373,0.389,0.559,0.85,0.838c0.138,0.082,0.83-0.151,1.121-0.193c0.406-0.059,0.508-0.169,0.746-0.236
		c0.197-0.057,0.394-0.244,0.553-0.306c0.105-0.04,0.214,0.01,0.272-0.088c0.084,0.01,0.124,0.103,0.212,0.108
		c-0.048-0.055-0.103-0.095-0.162-0.125c-0.06-0.405-0.324-0.776-0.47-1.108c-0.158-0.354-0.201-0.708-0.407-0.988
		c0.068-0.058,0.161,0.074,0.228,0.104c0.155,0.07,0.311,0.06,0.463,0.168c0.153,0.109,0.312,0.305,0.479,0.468
		c0.172,0.167,0.367,0.345,0.45,0.493c0.062,0.107,0.041,0.228,0.141,0.326c0.297,0.285,1.267-0.103,1.714-0.202
		c0.124-0.027,0.274-0.027,0.425-0.085c0.198-0.075,0.356-0.272,0.403-0.45c0.065-0.245-0.037-0.474-0.061-0.726
		c-0.015-0.143,0.015-0.318,0.026-0.437c0.016-0.151,0.015-0.302,0.114-0.411c0.094,0.059,0.109,0.171,0.134,0.26
		c0.088,0.293,0.132,0.493,0.221,0.692c0.053,0.118,0.148,0.192,0.147,0.342c0.167-0.112,0.073-0.504,0.108-0.727
		c0.013-0.08,0.076-0.233,0.117-0.251c0.097-0.047,0.27,0.058,0.336,0.139c0.186,0.219,0.186,0.693,0.488,0.747
		c0.086,0.015,0.287-0.009,0.386-0.038c0.244-0.066,0.497-0.232,0.792-0.328c0.437-0.14,0.845-0.17,0.945-0.679
		c0.019-0.097-0.02-0.207,0.001-0.304c0.044-0.213,0.177-0.387,0.224-0.57c-0.033-0.1,0.027-0.184,0.007-0.287
		c-0.045-0.229-0.246-0.414-0.298-0.648c-0.031-0.141,0.004-0.25-0.035-0.397c0.118,0.17,0.077,0.43,0.157,0.624
		c0.056,0.133,0.155,0.247,0.199,0.38c0.086,0.265,0.037,0.563,0.023,0.827c-0.014,0.27-0.047,0.536-0.091,0.777
		c0.224-0.215,0.744-0.187,1.13-0.389c0.053-0.15,0.174-0.216,0.217-0.389c0.044-0.176,0.011-0.424,0.048-0.637
		c0.028-0.174,0.084-0.493,0.185-0.576c0.143-0.116,0.412-0.024,0.332-0.285c-0.109-0.346-0.574-0.377-0.789-0.686
		c-0.445,0.084-0.851,0.227-1.396,0.239c-0.642,0.349-1.36,0.567-2.244,0.82c-0.442,0.127-0.844,0.257-1.229,0.276
		c0.011-0.52-0.216-1.032-0.055-1.477c0.126-0.045,0.247,0.094,0.27,0.217c0.152,0.105,0.236,0.297,0.42,0.359
		c0.136,0.048,0.263-0.05,0.421,0.006c0.513-0.141,0.945-0.296,1.465-0.406c0.183-0.039,0.445-0.088,0.588-0.209
		c0.574-0.488,0.14-1.436,0.334-2.117c-0.086-0.408-0.01-0.65-0.224-0.957c-0.029-0.041-0.097-0.078-0.128-0.137
		c-0.066-0.132-0.042-0.277-0.08-0.419c0.108,0.149,0.096,0.32,0.184,0.492c0.079,0.155,0.195,0.285,0.251,0.468
		c0.073,0.243,0.071,0.536,0.092,0.807c0.037,0.523,0.094,1.053,0.044,1.55c-0.025,0.253-0.106,0.475-0.12,0.696
		c0.147-0.101,0.399-0.095,0.498-0.261c0.484-0.296,0.545-0.28,0.739-0.446c0.145-0.17,0.473-0.375,0.613-0.531
		c0.32-0.355,0.062-0.585,0.086-1.106c0.008-0.161-0.042-0.554,0.025-0.631c0.057-0.065-0.131-0.741-0.055-0.791
		c0.287-0.188-0.111-0.546-0.301-0.647c0.133,0.069,0.264,0.146,0.368,0.271c0.032-0.045-0.056-0.091-0.069-0.138
		c0.512,0.569,0.406,1.315,0.461,2c0.039,0.51,0.034,0.942-0.107,1.297c-0.108,0.272-0.449,0.448-0.867,0.584
		c0.137,0.329,0.363,0.431,0.605,0.603c0.144,0.1,0.307,0.23,0.385,0.568c0.064,0.28-0.014,0.615-0.032,0.934
		c-0.017,0.268-0.115,0.666-0.284,0.819c-0.212,0.196-0.615,0.218-0.904,0.332c0.178,0.383,0.547,0.417,0.756,0.804
		c0.084-0.059-0.092-0.164-0.06-0.215c0.374,0.686,0.248,1.327,0.194,2.053c-0.034,0.482-0.059,1.127-0.29,1.517
		c-0.25,0.42-0.388,0.618-0.771,0.767c-0.402,0.219-0.402,0.219-0.658,0.35c-0.173,0.089-0.405,0.147-0.589,0.269
		c-0.237,0.155-0.402,0.188-0.688,0.29c-0.228,0.08-0.341,0.096-0.511,0.199c-0.118,0.07-0.372,0.154-0.561,0.23
		c-0.173,0.071-0.521,0.197-0.782,0.293c-0.302,0.112-0.453,0.19-0.712,0.225c-0.301,0.105-0.395,0.078-0.664,0.21
		c-0.207,0.1-0.773,0.167-1.057,0.239c-0.274,0.067-0.528,0.152-0.713,0.172c-0.247,0.027-0.711,0.173-1.023,0.186
		c-0.478,0.075-0.757-0.039-1.078-0.079c-0.451-0.056-0.788-0.192-1.103-0.459c-0.215-0.18-0.398-0.389-0.606-0.601
		c-0.442-0.453-0.987-0.881-1.169-1.502c-0.025-0.084-0.041-0.196-0.038-0.256c0.015-0.309,0.272-0.475,0.182-0.787
		c-0.313,0.042-0.617,0.281-0.934,0.25c-0.216-0.021-0.544-0.235-0.763-0.461c-0.247-0.258-0.564-0.491-0.698-0.805
		c-0.191-0.438-0.002-0.771,0.102-1.1c-0.042-0.113-0.038-0.203-0.056-0.303c-0.3,0.021-0.639,0.205-0.93,0.109
		c-0.365-0.123-0.74-0.552-1.008-0.916c-0.294-0.404-0.669-0.761-0.869-1.156c-0.107-0.213-0.218-0.561-0.21-0.77
		c0.014-0.349,0.372-0.566,0.247-0.968c-0.209-0.265-0.619-0.099-0.924-0.285c-0.234-0.144-0.526-0.552-0.66-0.851
		c-0.239-0.53-0.511-1.272-0.686-1.838c-0.202-0.657-0.121-1.24,0.386-1.566c0.022-0.082,0.041-0.165,0.059-0.25
		c-0.2-0.295-0.585-0.204-0.836-0.404c-0.497-0.39-0.7-1.43-0.848-2.069c-0.141-0.61-0.373-1.219-0.367-1.799
		c0.003-0.349-0.004-0.67,0.192-0.863c0.241-0.237,0.661-0.344,0.908-0.473c0.833-0.435,1.546-1.094,1.832-1.822
		c0.495-1.267,0.101-2.965,0.615-4.217c0.213-0.517,0.568-0.848,1.227-1.199c-0.476,0.107-1.003,0.291-1.362,0.072
		c-0.813-0.496-1.414-2.705-2.005-3.791c-0.232-0.427-0.785-0.929-0.67-1.489c-0.001-0.047,0.057-0.069,0.095-0.102
		c-0.023-0.089-0.039,0.076-0.063-0.014c0.433-0.689,1.602-0.985,2.68-1.386c1.007-0.377,2.127-0.652,3.09-0.9
		c-0.316,0.193-0.819,0.288-1.29,0.42c-1.262,0.353-2.614,0.885-3.579,1.271c0.313,0.215,0.784,0.123,1.228,0.026
		c0.919-0.196,1.91-0.537,2.876-0.758c0.435-0.1,0.977-0.208,1.277-0.096c0.089,0.034,0.136,0.134,0.235,0.12
		c0.115,0.344,0.467,0.619,0.813,0.749c0.042-0.052,0.079-0.105,0.133-0.15c0.043-0.051-0.071-0.162,0.06-0.199
		c0.091-0.018-0.039,0.029,0.006,0.07c0.243,0.138,0.51,0.237,0.828,0.228c0.053-0.1-0.145-0.052-0.105-0.126
		c1.351-1.059,3.304-0.824,4.39,0.081c0.412,0.347,0.683,0.81,0.916,1.284c0.375,1.298,0.044,2.36-0.694,3.141
		c-0.092,0.098-0.223,0.201-0.258,0.225c-0.122,0.085,0.06-0.079,0.135-0.151c0.508-0.476,0.797-1.119,0.872-1.794
		c-0.25-0.253-0.53-0.449-0.789-0.683c-0.044,0.041,0.017,0.13,0.037,0.2c-0.064,0.099-0.09,0.213-0.125,0.325
		c-0.885,0.97-3.056,1.505-4.613,2.071c-0.094-0.066-0.159-0.187-0.26-0.236c0.038-0.047,0.115,0.069,0.155,0.109
		c1.098-0.347,1.87-0.609,2.991-1.062c0.484-0.195,0.972-0.388,1.303-0.638c0.216-0.162,0.383-0.361,0.498-0.606
		c-0.04-0.304-0.45-0.505-0.727-0.67c-0.256-0.152-0.516-0.268-0.737-0.345c0.831,0.225,1.567,0.884,2.249,1.489
		c0.051-0.482-0.034-1.174-0.36-1.731c-0.361-0.616-1.05-1.173-1.697-1.384c-0.962-0.317-2.076-0.255-3.108,0.442
		c-0.056,0.028,0.03,0.093-0.021,0.149c-0.21,0.005-0.277,0.072-0.399,0.201c0.698,0.202,1.428,0.345,2.159,0.489
		c-0.711-0.082-1.485-0.274-2.188-0.461c-0.762,0.812-1.245,2.107-0.467,3.491c0.099,0.176,0.236,0.303,0.355,0.49
		c-0.518-0.516-0.791-1.305-0.808-1.958c-0.02-0.871,0.345-1.709,0.996-2.279c-0.158-0.095-0.363-0.1-0.526-0.184
		c-1.477,1.459-1.195,3.888,0.37,5.12c0.43,0.338,0.943,0.579,1.488,0.725c0.435,0.115,1.041,0.195,1.633,0.091
		c2.424-0.429,3.647-2.603,3.065-4.534c-0.035-0.095-0.071-0.19-0.106-0.286c0.059,0.039,0.071,0.173,0.112,0.247
		c0.074,0.146,0.049,0.36,0.132,0.51 M115.185,6.76c-0.092,0.042-0.245,0.057-0.299,0.115C114.979,6.833,115.131,6.819,115.185,6.76
		 M110.651,8.734c0.018,0.124,0.13,0.205,0.179,0.279c-0.189,0.012-0.295-0.138-0.495-0.105c0.027,0.117,0.171,0.147,0.264,0.198
		c0.104,0.056,0.199,0.138,0.305,0.202c0.21,0.131,0.457,0.202,0.613,0.37c0.17,0.183,0.279,0.483,0.414,0.754
		c0.12,0.241,0.183,0.477,0.284,0.706c0.318,0.733,0.565,1.332,0.814,2.028c0.101,0.286,0.185,0.578,0.368,0.733
		c0.298,0.252,0.797,0.036,1.124-0.046c1.069-0.266,2.055-0.674,3.067-0.963c-1.288-1.601-0.96-3.548-0.005-4.6
		c-0.22-0.075-0.351-0.17-0.488-0.285c-0.157-0.135-0.22-0.305-0.387-0.478c-0.314-0.328-1.608,0.06-2.371,0.274
		c-0.691,0.193-1.375,0.424-1.873,0.539c-0.174,0.039-0.464,0.017-0.619,0.075c-0.179,0.07-0.349,0.301-0.54,0.336
		c0.071-0.16,0.364-0.221,0.495-0.356c-0.2-0.005-0.407-0.014-0.555,0.144C111.083,8.28,110.61,8.449,110.651,8.734 M110.647,8.875
		c-0.057-0.038-0.052-0.152-0.037-0.253c-0.123-0.001-0.16,0.1-0.203,0.173C110.48,8.818,110.6,8.893,110.647,8.875 M112.868,26.866
		c-0.08-0.04-0.143-0.01-0.203,0.013c-0.488,0.176-0.669,0.49-0.468,1.039c0.148,0.409,0.428,1.111,0.655,1.654
		c0.145,0.352,0.226,0.648,0.387,0.886c0.248,0.368,0.837,0.562,1.219,0.156c-0.294-0.742-0.59-1.408-0.821-2.097
		c-0.091-0.273-0.177-0.582-0.269-0.926c-0.074-0.283-0.044-0.602-0.262-0.856C112.997,26.765,112.947,26.822,112.868,26.866
		 M114.594,31.794c-0.192,0.196-0.37,0.459-0.255,0.795c0.075,0.219,0.337,0.56,0.546,0.853c0.208,0.289,0.401,0.588,0.569,0.809
		c0.093,0.123,0.274,0.343,0.416,0.451c0.227,0.177,0.766,0.211,0.867-0.122c0.062-0.199-0.333-0.646-0.466-0.843
		c-0.54-0.796-0.803-1.321-1.213-2.076C114.913,31.634,114.808,31.755,114.594,31.794 M117.235,35.556
		c-0.191,0.34-0.363,0.688-0.082,1.004c0.222,0.248,0.666,0.771,0.922,0.89c0.235,0.108,0.727,0.001,0.757-0.265
		c0.013-0.108-0.199-0.328-0.307-0.467c-0.414-0.53-0.628-0.974-0.957-1.343C117.457,35.409,117.339,35.519,117.235,35.556
		 M126.368,35.248c0.02-0.101-0.018-0.266-0.033-0.344c-0.125,0.105-0.104,0.277-0.124,0.43c-0.994,0.43-2.474,0.844-3.548,1.155
		c0.185,0.135,0.347,0.313,0.608,0.3c0.129,0.062,0.23,0.176,0.345,0.262c0.305,0.396,0.718,0.912,0.993,1.437
		c0.205,0.394,0.342,0.858,0.747,0.929c0.21,0.023,0.371-0.064,0.6-0.07c0.131-0.002,0.311,0.093,0.461,0.011
		c0.172-0.095,0.131-0.517,0.114-0.714c-0.07-0.836-0.384-1.646-0.216-2.363c0.138,0.125,0.194,0.316,0.24,0.49
		c0.084,0.313,0.169,0.652,0.259,1c0.068,0.259,0.16,0.549,0.223,0.799c0.148-0.137,0.119-0.375,0.116-0.553
		c-0.002-0.201-0.057-0.42-0.071-0.652c-0.015-0.229-0.02-0.461-0.01-0.689c0.072,0.01,0.076-0.055,0.163-0.072
		c0.567,0.354,0.525,1.289,0.827,1.81c0.063,0.045,0.168,0.004,0.185,0.136c0.255,0.027,0.443-0.154,0.655-0.23
		c0.257-0.092,0.382-0.051,0.468-0.278c0.117-0.304,0.074-0.724,0.098-1.114c0.024-0.393,0.082-0.775,0.142-1.096
		c-0.05-0.376-0.224-0.691-0.372-0.999c0.04-0.174,0.02-0.303,0.005-0.444C128.21,34.767,127.285,35.036,126.368,35.248
		 M120.312,37.327c-0.111,0.041-0.235,0.088-0.309,0.188c0.045,0.021,0.102,0.019,0.136,0.062c-0.029,0.388,0.281,0.944,0.77,0.94
		c0.11,0,0.181-0.062,0.295-0.077c0.502-0.073,0.905,0.317,1.112,0.686c0.245,0.439,0.479,0.983,0.843,1.237
		c0.034,0.025,0.124,0.074,0.165,0.089c0.355,0.121,0.582-0.315,0.777-0.467c0.04-0.013,0.079-0.027,0.119-0.039
		c-0.022-0.328-0.128-0.542-0.261-0.804c-0.31-0.607-0.662-1.267-0.902-1.803c-0.103-0.233-0.287-0.49-0.455-0.812
		C121.824,36.841,121.003,37.069,120.312,37.327 M129.322,34.341c0.007,0.016,0.012,0.03,0.018,0.049
		c-0.036,0.324,0.015,0.586,0.154,0.873c0.302,0.617,0.176,1.131,0.167,1.668c-0.009,0.451-0.025,0.885-0.062,1.265
		c0.319-0.042,0.705-0.099,0.991-0.252c0.013-0.104,0.045-0.2,0.15-0.261c0.233-0.821,0.139-1.743,0.217-2.577
		c-0.016-0.066-0.07-0.148-0.053-0.195c0.08-0.037,0.174-0.101,0.25-0.099c-0.189-0.364-0.511-0.473-0.762-0.713
		C130.033,34.155,129.768,34.226,129.322,34.341 M119.343,37.89c-0.213,0.183-0.33,0.55-0.233,0.805
		c0.174,0.463,0.548,0.801,0.957,1.289c0.359,0.427,0.805,1.013,1.313,1.171c0.311,0.008,0.45-0.228,0.59-0.407
		c-0.796-0.734-1.62-2.057-2.194-2.82C119.618,37.878,119.501,37.909,119.343,37.89"/>
	<path fill-rule="evenodd" clip-rule="evenodd" fill="#ffffff" d="M118.941,7.314c-0.351,0.147-0.654,0.387-0.945,0.628
		C118.156,7.713,118.622,7.411,118.941,7.314"/>
	<path fill-rule="evenodd" clip-rule="evenodd" fill="#ffffff" d="M120.939,9.1c-0.047-0.016,0.121-0.032,0.125,0.029
		C121.021,9.121,120.982,9.106,120.939,9.1"/>
	<path fill-rule="evenodd" clip-rule="evenodd" fill="#ffffff" d="M121.235,9.18c0.021-0.038,0.116,0.012,0.16,0.019
		C121.367,9.25,121.286,9.173,121.235,9.18"/>
	<path fill-rule="evenodd" clip-rule="evenodd" fill="#ffffff" d="M125.927,16.449c0.033-0.054,0.157-0.05,0.209-0.05
		C126.171,16.417,125.992,16.415,125.927,16.449"/>
	<path fill-rule="evenodd" clip-rule="evenodd" fill="#ffffff" d="M126.176,16.403c0.03-0.054,0.117,0.01,0.182-0.022
		C126.33,16.431,126.228,16.396,126.176,16.403"/>
	<path fill-rule="evenodd" clip-rule="evenodd" fill="#ffffff" d="M128.67,21.403c0.096,0.095,0.185,0.206,0.316,0.234
		c-0.145,0.05-0.226-0.108-0.372-0.129c-0.209-0.026-0.541,0.142-0.821,0.198c-0.129,0.026-0.328,0.038-0.487,0.07
		c-0.102-0.191,0.159-0.141,0.191-0.312c0.486-0.182,0.795-0.282,0.944-0.864c0.131-0.177,0.158-0.747,0.233-0.782
		c0.096-0.334-0.231-0.789-0.384-1.117c-0.259-0.557-0.489-1.118-0.763-1.582c-0.102-0.174-0.174-0.282-0.329-0.426
		c-0.023-0.02-0.095-0.061-0.081-0.116c0.282,0.138,0.659,0.777,0.946,1.362c0.244,0.503,0.559,1.011,0.759,1.477
		c0.165,0.383,0.301,0.919,0.228,1.223C128.978,20.958,128.628,21.057,128.67,21.403"/>
	<path fill-rule="evenodd" clip-rule="evenodd" fill="#ffffff" d="M126.78,21.946c-0.364,0.195-0.774,0.285-1.159,0.414
		c-0.644,0.217-1.192,0.402-2.009,0.582c-0.357-0.108-0.362-0.465-0.436-0.711c0.058,0.017,0.091,0.079,0.137,0.114
		c0.628-0.225,1.549-0.479,2.179-0.636c0.328-0.082,0.925-0.171,1.022-0.476c0.036-0.113-0.032-0.254,0.041-0.35
		c-0.173-0.825-0.623-1.634-0.932-2.344c-0.156-0.357-0.217-0.724-0.475-0.966c0.03-0.037,0.097,0.072,0.15,0.146
		c0.355,0.499,0.603,1.25,0.909,1.926c0.192,0.426,0.407,1.028,0.527,1.41C126.832,21.373,126.863,21.716,126.78,21.946"/>
	<path fill-rule="evenodd" clip-rule="evenodd" fill="#ffffff" d="M128.974,26.652c0.712-0.433,0.962-0.584,1.271-1.115
		c0.197-0.344,0.264-0.658,0.184-1.067c-0.031-0.16-0.045-0.42-0.088-0.714c-0.012-0.079-0.162-0.457-0.149-0.541
		c0.044-0.319-0.155-1.222-0.634-1.372c0.068-0.05,0.159,0.094,0.247,0.098c0.44,0.42,0.563,1.147,0.843,1.804
		c0.251,0.585,0.502,1.324,0.288,1.791c-0.125,0.271-0.501,0.361-0.506,0.681c0.06,0.067,0.12,0.187,0.196,0.272
		c0.048,0.057,0.181,0.131,0.127,0.139c-0.1-0.07-0.202-0.137-0.295-0.225C129.881,26.387,129.543,26.623,128.974,26.652"/>
	<path fill-rule="evenodd" clip-rule="evenodd" fill="#ffffff" d="M127.468,22.719c0.311,0.192,0.452,0.738,0.602,1.207
		c0.326,1.022,0.696,2.046,0.627,2.8c-1.142,0.474-2.54,0.887-3.509,1.105c-0.089,0.01-0.134-0.068-0.205-0.094
		c-0.071-0.284-0.137-0.554-0.16-0.836c0.09-0.037,0.11,0.061,0.166,0.088c0.277,0.041,0.417-0.033,0.692-0.083
		c0.276-0.05,0.581-0.08,0.907-0.169c0.69-0.193,1.457-0.424,1.859-0.784c0.048-0.298,0.005-0.632-0.142-1.091
		c-0.128-0.404-0.313-0.79-0.415-1.215C127.796,23.249,127.774,23.025,127.468,22.719"/>
</g>
</svg>
