<?xml version="1.0" encoding="utf-8"?>
<!-- Generator: Adobe Illustrator 17.0.0, SVG Export Plug-In . SVG Version: 6.00 Build 0)  -->
<!DOCTYPE svg PUBLIC "-//W3C//DTD SVG 1.1//EN" "http://www.w3.org/Graphics/SVG/1.1/DTD/svg11.dtd">
<svg version="1.1" id="Layer_1" xmlns="http://www.w3.org/2000/svg" xmlns:xlink="http://www.w3.org/1999/xlink" x="0px" y="0px"
	 width="50.112px" height="45.995px" viewBox="0 0 50.112 45.995" enable-background="new 0 0 50.112 45.995" xml:space="preserve">
<g>
	<g>
		<path fill="#656D79" d="M32.117,45.495H17.176V27.237c0-1.733,1.41-3.144,3.143-3.144h8.654c1.733,0,3.144,1.41,3.144,3.144
			V45.495z M20.176,42.495h8.941V27.237c0-0.079-0.064-0.144-0.144-0.144H20.32c-0.079,0-0.143,0.064-0.143,0.144V42.495z"/>
	</g>
	<g>
		<path fill="#656D79" d="M42.789,45.995H8.116c-2.529,0-4.578-2.05-4.578-4.578v-17.92c0-1.105,0.895-2,2-2l0,0
			c1.104,0,2,0.895,2,2v17.92c0,0.318,0.26,0.578,0.578,0.578h34.674c0.318,0,0.578-0.26,0.578-0.578V18.253h4v23.164
			C47.368,43.945,45.318,45.995,42.789,45.995z"/>
	</g>
	<g>
		<path fill="#656D79" d="M42.327,20.697c-2.26,0-4.377-0.983-5.834-2.633c-1.448,1.561-3.503,2.495-5.693,2.495
			c-2.217,0-4.288-0.95-5.735-2.54c-1.448,1.59-3.518,2.54-5.735,2.54c-2.235,0-4.318-0.962-5.768-2.569
			c-1.572,1.735-3.886,2.723-6.305,2.551C3.187,20.264,0,16.711,0,12.452v-0.609l6.696-9.976C7.454,0.736,8.72,0.06,10.081,0.059
			L40.003,0c0.002,0,0.004,0,0.006,0c1.38,0,2.655,0.687,3.413,1.839l6.69,10.152v0.6c0,4.257-3.185,7.81-7.252,8.088
			C42.682,20.691,42.504,20.697,42.327,20.697z M36.529,12.856c0.011,0,0.021,0,0.032,0c0.996,0.013,1.893,0.616,2.284,1.538
			c0.63,1.482,2.132,2.399,3.742,2.294c1.775-0.122,3.248-1.665,3.49-3.551l-5.995-9.099L10.087,4.059l-0.07,0.037l-5.981,8.912
			c0.246,1.883,1.718,3.422,3.491,3.543c1.609,0.109,3.074-0.776,3.723-2.256c0.403-0.919,1.308-1.514,2.306-1.516
			c0.001,0,0.002,0,0.003,0c1.001,0,1.91,0.596,2.317,1.519c0.605,1.374,1.959,2.262,3.452,2.262c1.486,0,2.836-0.884,3.441-2.252
			c0.404-0.914,1.305-1.505,2.294-1.505c0,0,0,0,0,0c0.99,0,1.89,0.591,2.294,1.506c0.604,1.367,1.955,2.251,3.441,2.251
			c1.469,0,2.814-0.869,3.427-2.215C34.638,13.437,35.54,12.856,36.529,12.856z"/>
	</g>
</g>
</svg>
