<?xml version="1.0" encoding="utf-8"?>
<!-- Generator: Adobe Illustrator 17.0.0, SVG Export Plug-In . SVG Version: 6.00 Build 0)  -->
<!DOCTYPE svg PUBLIC "-//W3C//DTD SVG 1.1//EN" "http://www.w3.org/Graphics/SVG/1.1/DTD/svg11.dtd">
<svg version="1.1" id="Layer_1" xmlns="http://www.w3.org/2000/svg" xmlns:xlink="http://www.w3.org/1999/xlink" x="0px" y="0px"
	 width="49.249px" height="44.774px" viewBox="0 0 49.249 44.774" enable-background="new 0 0 49.249 44.774" xml:space="preserve">
<g>
	<g>
		<g>
			<rect x="22.624" y="0" fill="#656D79" width="4" height="7.512"/>
		</g>
		<g>
			<g>
				<path fill="#656D79" d="M42.388,44.773c-5.752,0-10.446-4.617-10.57-10.34H17.431c-0.124,5.723-4.818,10.34-10.57,10.34
					C3.078,44.773,0,41.696,0,37.913V19.177C0,11.642,6.13,5.512,13.666,5.512h21.917c7.536,0,13.666,6.13,13.666,13.665v18.736
					C49.249,41.696,46.171,44.773,42.388,44.773z M17.201,30.434h14.847c2.078,0,3.768,1.69,3.768,3.768
					c0,3.624,2.948,6.572,6.572,6.572c1.578,0,2.861-1.283,2.861-2.86V19.177c0-5.329-4.336-9.665-9.666-9.665H13.666
					C8.336,9.512,4,13.848,4,19.177v18.736c0,1.577,1.283,2.86,2.861,2.86c3.624,0,6.572-2.948,6.572-6.572
					C13.433,32.124,15.123,30.434,17.201,30.434z"/>
			</g>
		</g>
	</g>
	<g>
		<g>
			<circle fill="#656D79" cx="35.085" cy="17.599" r="2.033"/>
		</g>
		<g>
			<circle fill="#656D79" cx="38.692" cy="22.502" r="2.033"/>
		</g>
		<g>
			<g>
				<path fill="#656D79" d="M31.023,27.485h-2.951c-0.289,0-0.523-0.234-0.523-0.523v-2.193c0-0.289,0.234-0.523,0.523-0.523h2.951
					c0.289,0,0.523,0.234,0.523,0.523v2.193C31.545,27.25,31.311,27.485,31.023,27.485z"/>
			</g>
			<g>
				<path fill="#656D79" d="M21.652,27.485h-2.951c-0.289,0-0.523-0.234-0.523-0.523v-2.193c0-0.289,0.234-0.523,0.523-0.523h2.951
					c0.289,0,0.523,0.234,0.523,0.523v2.193C22.174,27.25,21.94,27.485,21.652,27.485z"/>
			</g>
		</g>
		<g>
			<g>
				<path fill="#656D79" d="M12.577,24.524L12.577,24.524c-0.721,0-1.305-0.584-1.305-1.305v-5.498c0-0.721,0.584-1.305,1.305-1.305
					l0,0c0.721,0,1.305,0.584,1.305,1.305v5.498C13.883,23.94,13.298,24.524,12.577,24.524z"/>
			</g>
			<g>
				<path fill="#656D79" d="M16.632,20.401v0.137c0,0.721-0.584,1.305-1.305,1.305H9.828c-0.721,0-1.305-0.584-1.305-1.305v-0.137
					c0-0.721,0.584-1.305,1.305-1.305h5.498C16.047,19.096,16.632,19.68,16.632,20.401z"/>
			</g>
		</g>
	</g>
</g>
</svg>
