<svg id="eJtAUhIPlH91" xmlns="http://www.w3.org/2000/svg" xmlns:xlink="http://www.w3.org/1999/xlink" viewBox="134.657 26.118 1010.686 749.05" shape-rendering="geometricPrecision" text-rendering="geometricPrecision"><style><![CDATA[#eJtAUhIPlH94 {animation: eJtAUhIPlH94_c_o 3000ms linear infinite normal forwards}@keyframes eJtAUhIPlH94_c_o { 0% {opacity: 1;animation-timing-function: cubic-bezier(0.42,0,0.58,1)} 50% {opacity: 0.3} 100% {opacity: 1}} #eJtAUhIPlH9126_to {animation: eJtAUhIPlH9126_to__to 3000ms linear infinite normal forwards}@keyframes eJtAUhIPlH9126_to__to { 0% {transform: translate(649.228958px,304.633507px);animation-timing-function: cubic-bezier(0.42,0,0.58,1)} 50% {transform: translate(649.228958px,295.63px);animation-timing-function: cubic-bezier(0.42,0,0.58,1)} 100% {transform: translate(649.228958px,304.633507px)}}]]></style><defs><linearGradient id="eJtAUhIPlH9128-fill" x1="507.616642" y1="137.667296" x2="840.03153" y2="137.667296" spreadMethod="pad" gradientUnits="userSpaceOnUse"><stop id="eJtAUhIPlH9128-fill-0" offset="0%" stop-color="rgb(114,114,114)"/><stop id="eJtAUhIPlH9128-fill-1" offset="100%" stop-color="rgb(147,147,147)"/></linearGradient><linearGradient id="eJtAUhIPlH9129-fill" x1="759.878236" y1="189.848263" x2="759.878236" y2="489.921921" spreadMethod="pad" gradientUnits="userSpaceOnUse"><stop id="eJtAUhIPlH9129-fill-0" offset="0%" stop-color="rgb(117,117,117)"/><stop id="eJtAUhIPlH9129-fill-1" offset="100%" stop-color="rgb(0,0,0)"/></linearGradient><linearGradient id="eJtAUhIPlH9130-fill" x1="514.098127" y1="393.232991" x2="803.580505" y2="103.750613" spreadMethod="pad" gradientUnits="userSpaceOnUse"><stop id="eJtAUhIPlH9130-fill-0" offset="0%" stop-color="rgb(71,71,71)"/><stop id="eJtAUhIPlH9130-fill-1" offset="100%" stop-color="rgb(0,0,0)"/></linearGradient><linearGradient id="eJtAUhIPlH9132-fill" x1="716.822791" y1="265.88798" x2="485.857235" y2="34.922424" spreadMethod="pad" gradientUnits="userSpaceOnUse"><stop id="eJtAUhIPlH9132-fill-0" offset="0%" stop-color="rgb(63,208,216)"/><stop id="eJtAUhIPlH9132-fill-1" offset="100%" stop-color="rgb(163,255,18)"/></linearGradient><linearGradient id="eJtAUhIPlH9133-fill" x1="735.291336" y1="558.519372" x2="735.291336" y2="224.364488" spreadMethod="pad" gradientUnits="userSpaceOnUse"><stop id="eJtAUhIPlH9133-fill-0" offset="0%" stop-color="rgb(121,170,0)"/><stop id="eJtAUhIPlH9133-fill-1" offset="100%" stop-color="rgb(0,204,111)"/></linearGradient><linearGradient id="eJtAUhIPlH9134-fill" x1="640.953292" y1="572.325862" x2="640.953292" y2="84.597418" spreadMethod="pad" gradientUnits="userSpaceOnUse"><stop id="eJtAUhIPlH9134-fill-0" offset="0%" stop-color="rgb(163,255,18)"/><stop id="eJtAUhIPlH9134-fill-1" offset="100%" stop-color="rgb(0,0,0)"/></linearGradient><linearGradient id="eJtAUhIPlH9137-fill" x1="458.442842" y1="162.556804" x2="790.933382" y2="162.556804" spreadMethod="pad" gradientUnits="userSpaceOnUse"><stop id="eJtAUhIPlH9137-fill-0" offset="0%" stop-color="rgb(114,114,114)"/><stop id="eJtAUhIPlH9137-fill-1" offset="100%" stop-color="rgb(147,147,147)"/></linearGradient><linearGradient id="eJtAUhIPlH9138-fill" x1="710.713892" y1="214.718858" x2="710.713892" y2="514.811429" spreadMethod="pad" gradientUnits="userSpaceOnUse"><stop id="eJtAUhIPlH9138-fill-0" offset="0%" stop-color="rgb(117,117,117)"/><stop id="eJtAUhIPlH9138-fill-1" offset="100%" stop-color="rgb(0,0,0)"/></linearGradient><linearGradient id="eJtAUhIPlH9139-fill" x1="465.039129" y1="418.123823" x2="754.54042" y2="128.641445" spreadMethod="pad" gradientUnits="userSpaceOnUse"><stop id="eJtAUhIPlH9139-fill-0" offset="0%" stop-color="rgb(71,71,71)"/><stop id="eJtAUhIPlH9139-fill-1" offset="100%" stop-color="rgb(0,0,0)"/></linearGradient><linearGradient id="eJtAUhIPlH9140-fill" x1="616.385305" y1="533.894646" x2="616.385305" y2="133.903609" spreadMethod="pad" gradientUnits="userSpaceOnUse"><stop id="eJtAUhIPlH9140-fill-0" offset="0%" stop-color="rgb(0,0,0)"/><stop id="eJtAUhIPlH9140-fill-1" offset="100%" stop-color="rgb(245,159,92)"/></linearGradient><linearGradient id="eJtAUhIPlH9141-fill" x1="616.385305" y1="533.894646" x2="616.385305" y2="133.903609" spreadMethod="pad" gradientUnits="userSpaceOnUse"><stop id="eJtAUhIPlH9141-fill-0" offset="0%" stop-color="rgb(63,208,216)"/><stop id="eJtAUhIPlH9141-fill-1" offset="100%" stop-color="rgb(163,255,18)"/></linearGradient><linearGradient id="eJtAUhIPlH9142-fill" x1="549.537306" y1="549.706103" x2="549.537306" y2="136.684009" spreadMethod="pad" gradientUnits="userSpaceOnUse"><stop id="eJtAUhIPlH9142-fill-0" offset="0%" stop-color="rgb(121,170,0)"/><stop id="eJtAUhIPlH9142-fill-1" offset="100%" stop-color="rgb(0,204,111)"/></linearGradient><linearGradient id="eJtAUhIPlH9147-fill" x1="509.869369" y1="418.225008" x2="703.67088" y2="245.492579" spreadMethod="pad" gradientUnits="userSpaceOnUse"><stop id="eJtAUhIPlH9147-fill-0" offset="0%" stop-color="rgb(0,0,0)"/><stop id="eJtAUhIPlH9147-fill-1" offset="100%" stop-color="rgb(255,255,255)"/></linearGradient><linearGradient id="eJtAUhIPlH9149-fill" x1="509.869369" y1="418.225008" x2="703.67088" y2="245.492579" spreadMethod="pad" gradientUnits="userSpaceOnUse"><stop id="eJtAUhIPlH9149-fill-0" offset="0%" stop-color="rgb(163,255,18)"/><stop id="eJtAUhIPlH9149-fill-1" offset="100%" stop-color="rgb(163,255,18)"/></linearGradient></defs><g id="eJtAUhIPlH92"><g id="eJtAUhIPlH93"><path id="eJtAUhIPlH94" d="M637.541,616.548C589.333,616.548,541.087,607.224,504.435,588.576C468.501,570.306,448.7,545.89,448.719,519.791C448.738,493.692,468.577,469.313,504.549,451.12L505.457,453.011L504.549,451.12C577.816,414.051,696.965,414.165,770.157,451.366C806.091,469.617,825.873,494.052,825.854,520.132C825.835,546.212,806.015,570.61,770.024,588.822C733.485,607.357,685.523,616.548,637.541,616.548ZM637.031,427.423C589.75,427.423,542.468,436.52,506.383,454.771C471.868,472.36,452.766,495.509,452.766,519.849C452.766,544.189,471.679,567.395,506.213,584.927C578.402,621.598,695.906,621.712,768.152,585.154C802.667,567.698,821.674,544.624,821.693,520.189C821.712,495.754,802.781,472.662,768.265,455.13C732.142,436.747,684.577,427.556,637.031,427.556L637.031,427.423Z" fill="rgb(0,204,111)" stroke="none" stroke-width="1"/><path id="eJtAUhIPlH95" d="M640,696.246L290.326,518.96L640,341.655L989.674,518.96L640,696.246ZM299.574,518.96L640,691.593L980.52,518.96L640,346.307L299.574,518.96Z" fill="rgb(0,204,111)" stroke="none" stroke-width="1"/><g id="eJtAUhIPlH96"><path id="eJtAUhIPlH97" d="M508.369,412.123L425.4,370.043L425.4,297.873L366.771,268.124L368.662,264.341L429.579,295.225L429.579,367.471L510.298,408.398L508.369,412.123Z" fill="none" stroke="rgb(255,255,255)" stroke-width="2.25"/><ellipse id="eJtAUhIPlH98" rx="6.979" ry="3.537" transform="matrix(1 0 0 1 367.66 266.269)" fill="rgb(255,255,255)" stroke="none" stroke-width="1"/><path id="eJtAUhIPlH99" d="M432.378,294.09C435.101,295.471,435.101,297.702,432.378,299.083C429.232,300.465,425.651,300.465,422.506,299.083C419.783,297.702,419.783,295.471,422.506,294.09C425.648,292.689,429.237,292.689,432.378,294.09Z" fill="rgb(255,255,255)" stroke="none" stroke-width="1"/><path id="eJtAUhIPlH910" d="M514.232,407.754C516.955,409.135,516.955,411.385,514.232,412.766C511.086,414.148,507.505,414.148,504.36,412.766C501.637,411.385,501.637,409.135,504.36,407.754C507.505,406.372,511.086,406.372,514.232,407.754Z" fill="rgb(255,255,255)" stroke="none" stroke-width="1"/></g><g id="eJtAUhIPlH911"><path id="eJtAUhIPlH912" d="M424.7,454.544L343.376,413.258L200.946,413.258L140.71,382.714L142.601,378.931L201.967,409.021L344.322,409.021L426.592,450.742L424.7,454.544Z" fill="none" stroke="rgb(255,255,255)" stroke-width="2.25"/><path id="eJtAUhIPlH913" d="M136.7,383.357C139.842,384.758,143.431,384.758,146.572,383.357C149.295,381.976,149.295,379.745,146.572,378.364C143.426,376.982,139.845,376.982,136.7,378.364C133.976,379.745,133.976,382.033,136.7,383.357Z" fill="rgb(255,255,255)" stroke="none" stroke-width="1"/><ellipse id="eJtAUhIPlH914" rx="6.979" ry="3.537" transform="matrix(1 0 0 1 201.418 411.177)" fill="rgb(255,255,255)" stroke="none" stroke-width="1"/><ellipse id="eJtAUhIPlH915" rx="6.979" ry="3.537" transform="matrix(1 0 0 1 425.626 452.671)" fill="rgb(255,255,255)" stroke="none" stroke-width="1"/></g><g id="eJtAUhIPlH916"><path id="eJtAUhIPlH917" d="M911.433,773.522L850.516,742.619L850.516,670.43L769.797,629.503L771.688,625.72L854.657,667.781L854.657,740.046L913.286,769.776L911.433,773.522Z" fill="none" stroke="rgb(255,255,255)" stroke-width="2.25"/><ellipse id="eJtAUhIPlH918" rx="6.979" ry="3.537" transform="matrix(1 0 0 1 912.34 771.631)" fill="rgb(255,255,255)" stroke="none" stroke-width="1"/><ellipse id="eJtAUhIPlH919" rx="6.979" ry="3.537" transform="matrix(1 0 0 1 852.558 741.314)" fill="rgb(255,255,255)" stroke="none" stroke-width="1"/><ellipse id="eJtAUhIPlH920" rx="6.979" ry="3.537" transform="matrix(1 0 0 1 770.723 627.65)" fill="rgb(255,255,255)" stroke="none" stroke-width="1"/></g><g id="eJtAUhIPlH921"><path id="eJtAUhIPlH922" d="M1137.4,658.894L1078.034,628.804L935.735,628.804L853.466,587.083L855.357,583.301L936.681,624.568L1079.036,624.568L1139.291,655.187L1137.4,658.894Z" fill="none" stroke="rgb(255,255,255)" stroke-width="2.25"/><ellipse id="eJtAUhIPlH923" rx="6.979" ry="3.537" transform="matrix(1 0 0 1 1138.36 657.04)" fill="rgb(255,255,255)" stroke="none" stroke-width="1"/><path id="eJtAUhIPlH924" d="M1083.518,624.227C1080.372,622.845,1076.791,622.845,1073.646,624.227C1070.923,625.608,1070.923,627.839,1073.646,629.22C1076.788,630.621,1080.377,630.621,1083.518,629.22C1086.336,627.896,1086.336,625.608,1083.518,624.227Z" fill="rgb(255,255,255)" stroke="none" stroke-width="1"/><ellipse id="eJtAUhIPlH925" rx="6.979" ry="3.537" transform="matrix(1 0 0 1 854.374 585.229)" fill="rgb(255,255,255)" stroke="none" stroke-width="1"/></g><g id="eJtAUhIPlH926"><path id="eJtAUhIPlH927" d="M592.265,369.229L588.161,369.229L588.161,323.064L534.26,295.735L536.151,291.952L592.34,320.434L592.265,369.229Z" fill="rgb(163,255,18)" stroke="none" stroke-width="1"/><path id="eJtAUhIPlH928" d="M565.957,382.563L561.853,382.563L561.853,328.587L515.65,305.173L517.541,301.39L566.014,325.976L565.957,382.563Z" fill="rgb(163,255,18)" stroke="none" stroke-width="1"/><path id="eJtAUhIPlH929" d="M539.65,395.896L535.546,395.896L535.546,334.109L497.059,314.591L498.95,310.808L539.707,331.479L539.65,395.896Z" fill="rgb(163,255,18)" stroke="none" stroke-width="1"/><path id="eJtAUhIPlH930" d="M540.104,291.385C536.962,289.984,533.373,289.984,530.232,291.385C527.509,292.766,527.509,294.997,530.232,296.378C533.378,297.76,536.959,297.76,540.104,296.378C542.827,295.035,542.827,292.766,540.104,291.385Z" fill="rgb(255,255,255)" stroke="none" stroke-width="1"/><path id="eJtAUhIPlH931" d="M521.513,300.804C518.367,299.422,514.786,299.422,511.641,300.804C508.918,302.185,508.918,304.435,511.641,305.816C514.787,307.198,518.368,307.198,521.513,305.816C524.236,304.492,524.236,302.184,521.513,300.804Z" fill="rgb(255,255,255)" stroke="none" stroke-width="1"/><path id="eJtAUhIPlH932" d="M502.903,310.165C499.757,308.783,496.176,308.783,493.031,310.165C490.308,311.546,490.308,313.777,493.031,315.158C496.177,316.54,499.758,316.54,502.903,315.158C505.721,313.948,505.721,311.622,502.903,310.165Z" fill="rgb(255,255,255)" stroke="none" stroke-width="1"/><path id="eJtAUhIPlH933" d="M595.14,366.733C591.994,365.351,588.413,365.351,585.268,366.733C582.545,368.114,582.545,370.345,585.268,371.726C588.414,373.108,591.995,373.108,595.14,371.726C597.863,370.345,597.863,368.113,595.14,366.733Z" fill="rgb(255,255,255)" stroke="none" stroke-width="1"/><path id="eJtAUhIPlH934" d="M568.851,380.142C565.705,378.76,562.124,378.76,558.979,380.142C556.256,381.523,556.256,383.754,558.979,385.135C562.125,386.517,565.706,386.517,568.851,385.135C571.575,383.678,571.575,381.447,568.851,380.142Z" fill="rgb(255,255,255)" stroke="none" stroke-width="1"/><path id="eJtAUhIPlH935" d="M542.544,393.381C539.398,391.999,535.817,391.999,532.672,393.381C529.949,394.762,529.949,396.993,532.672,398.393C535.818,399.775,539.399,399.775,542.544,398.393C545.267,397.012,545.267,394.78,542.544,393.381Z" fill="rgb(255,255,255)" stroke="none" stroke-width="1"/></g><g id="eJtAUhIPlH936"><path id="eJtAUhIPlH937" d="M485.144,423.887L272.322,316.085L274.213,312.302L487.036,420.103L485.144,423.887Z" fill="rgb(163,255,18)" stroke="none" stroke-width="1"/><path id="eJtAUhIPlH938" d="M466.534,433.324L253.731,325.428L255.622,321.645L468.426,429.56L466.534,433.324Z" fill="none" stroke="rgb(0,204,111)" stroke-width="2.5"/><path id="eJtAUhIPlH939" d="M447.943,442.761L235.121,334.846L237.012,331.063L449.835,438.864L447.943,442.761Z" fill="rgb(163,255,18)" stroke="none" stroke-width="1"/><path id="eJtAUhIPlH940" d="M278.184,311.641C275.038,310.259,271.457,310.259,268.312,311.641C265.589,313.022,265.589,315.253,268.312,316.634C271.458,318.016,275.039,318.016,278.184,316.634C280.908,315.253,280.908,313.021,278.184,311.641Z" fill="rgb(255,255,255)" stroke="none" stroke-width="1"/><path id="eJtAUhIPlH941" d="M259.574,321.059C256.428,319.677,252.847,319.677,249.702,321.059C246.979,322.44,246.979,324.69,249.702,326.071C252.848,327.453,256.429,327.453,259.574,326.071C262.298,324.69,262.298,322.44,259.574,321.059Z" fill="rgb(255,255,255)" stroke="none" stroke-width="1"/><path id="eJtAUhIPlH942" d="M240.946,330.496C237.8,329.114,234.219,329.114,231.074,330.496C228.351,331.877,228.351,334.108,231.074,335.489C234.22,336.871,237.801,336.871,240.946,335.489C243.707,334.109,243.707,331.877,240.946,330.496Z" fill="rgb(255,255,255)" stroke="none" stroke-width="1"/><path id="eJtAUhIPlH943" d="M491.177,420.293C488.035,418.892,484.446,418.892,481.305,420.293C478.582,421.674,478.582,423.905,481.305,425.286C484.451,426.668,488.032,426.668,491.177,425.286C493.901,423.905,493.901,421.749,491.177,420.293Z" fill="rgb(255,255,255)" stroke="none" stroke-width="1"/><path id="eJtAUhIPlH944" d="M472.586,429.712C469.44,428.33,465.859,428.33,462.714,429.712C459.991,431.093,459.991,433.343,462.714,434.724C465.86,436.106,469.441,436.106,472.586,434.724C475.31,433.343,475.31,431.092,472.586,429.712Z" fill="rgb(255,255,255)" stroke="none" stroke-width="1"/><path id="eJtAUhIPlH945" d="M453.976,439.149C450.837,437.768,447.262,437.768,444.123,439.149C441.4,440.53,441.4,442.761,444.123,444.142C447.262,445.523,450.837,445.523,453.976,444.142C456.719,442.761,456.719,440.53,453.976,439.149Z" fill="rgb(255,255,255)" stroke="none" stroke-width="1"/></g><g id="eJtAUhIPlH946"><path id="eJtAUhIPlH947" d="M397.314,469.031L272.492,469.031L232.379,448.795L234.27,445.012L273.457,464.889L397.372,464.889L397.314,469.031Z" fill="rgb(163,255,18)" stroke="none" stroke-width="1"/><path id="eJtAUhIPlH948" d="M371.007,482.44L261.541,482.44L213.768,458.232L215.659,454.449L262.505,478.298L371.006,478.298L371.006,482.44Z" fill="rgb(163,255,18)" stroke="none" stroke-width="1"/><path id="eJtAUhIPlH949" d="M344.7,495.792L250.648,495.792L195.178,467.65L197.069,463.867L251.613,491.725L344.7,491.725L344.7,495.792Z" fill="rgb(163,255,18)" stroke="none" stroke-width="1"/><path id="eJtAUhIPlH950" d="M238.222,449.437C240.945,448.056,240.945,445.825,238.222,444.444C235.076,443.062,231.495,443.062,228.35,444.444C225.627,445.825,225.627,448.056,228.35,449.437C231.496,450.819,235.077,450.819,238.222,449.437Z" fill="rgb(255,255,255)" stroke="none" stroke-width="1"/><path id="eJtAUhIPlH951" d="M219.631,458.875C222.354,457.494,222.354,455.244,219.631,453.863C216.485,452.481,212.904,452.481,209.759,453.863C207.036,455.244,207.036,457.494,209.759,458.875C212.905,460.256,216.485,460.256,219.631,458.875Z" fill="rgb(255,255,255)" stroke="none" stroke-width="1"/><path id="eJtAUhIPlH952" d="M201.021,468.293C203.744,466.912,203.744,464.681,201.021,463.3C197.875,461.918,194.294,461.918,191.149,463.3C188.426,464.681,188.426,466.912,191.149,468.293C194.291,469.694,197.88,469.694,201.021,468.293Z" fill="rgb(255,255,255)" stroke="none" stroke-width="1"/><path id="eJtAUhIPlH953" d="M402.251,469.541C404.974,468.16,404.974,465.91,402.251,464.529C399.105,463.147,395.524,463.147,392.379,464.529C389.656,465.91,389.656,468.16,392.379,469.541C395.524,470.923,399.105,470.923,402.251,469.541Z" fill="rgb(255,255,255)" stroke="none" stroke-width="1"/><path id="eJtAUhIPlH954" d="M375.943,482.875C378.666,481.494,378.666,479.244,375.943,477.863C372.797,476.481,369.216,476.481,366.071,477.863C363.348,479.244,363.348,481.494,366.071,482.875C369.217,484.256,372.798,484.256,375.943,482.875Z" fill="rgb(255,255,255)" stroke="none" stroke-width="1"/><path id="eJtAUhIPlH955" d="M349.636,496.208C352.359,494.827,352.359,492.596,349.636,491.215C346.494,489.814,342.905,489.814,339.764,491.215C337.041,492.596,337.041,494.827,339.764,496.208C342.909,497.59,346.49,497.59,349.636,496.208Z" fill="rgb(255,255,255)" stroke="none" stroke-width="1"/></g><g id="eJtAUhIPlH956"><path id="eJtAUhIPlH957" d="M230.487,595.518L228.596,591.735L334.922,537.815L336.813,541.597L230.487,595.518Z" fill="rgb(163,255,18)" stroke="none" stroke-width="1"/><path id="eJtAUhIPlH958" d="M249.021,604.917L247.13,601.134L353.475,547.233L355.366,551.015L249.021,604.917Z" fill="none" stroke="rgb(0,204,111)" stroke-width="2.5"/><path id="eJtAUhIPlH959" d="M267.612,614.336L265.721,610.553L372.066,556.633L373.957,560.415L267.612,614.336Z" fill="rgb(163,255,18)" stroke="none" stroke-width="1"/><path id="eJtAUhIPlH960" d="M234.44,596.123C237.182,594.742,237.163,592.511,234.44,591.13C231.301,589.749,227.726,589.749,224.587,591.13C221.845,592.511,221.845,594.742,224.587,596.123C227.726,597.504,231.3,597.504,234.44,596.123Z" fill="rgb(255,255,255)" stroke="none" stroke-width="1"/><path id="eJtAUhIPlH961" d="M253.05,605.56C255.773,604.179,255.773,601.929,253.05,600.548C249.904,599.166,246.323,599.166,243.178,600.548C240.455,601.929,240.455,604.179,243.178,605.56C246.323,606.942,249.904,606.942,253.05,605.56Z" fill="rgb(255,255,255)" stroke="none" stroke-width="1"/><path id="eJtAUhIPlH962" d="M271.641,614.979C274.364,613.598,274.364,611.367,271.641,609.986C268.495,608.604,264.914,608.604,261.769,609.986C259.046,611.367,259.046,613.598,261.769,614.979C264.91,616.379,268.499,616.379,271.641,614.979Z" fill="rgb(255,255,255)" stroke="none" stroke-width="1"/><path id="eJtAUhIPlH963" d="M359.376,551.641C362.099,550.26,362.099,548.029,359.376,546.648C356.232,545.257,352.647,545.257,349.504,546.648C346.781,548.048,346.781,550.279,349.504,551.66C352.652,553.035,356.233,553.028,359.376,551.641Z" fill="rgb(255,255,255)" stroke="none" stroke-width="1"/><path id="eJtAUhIPlH964" d="M340.785,542.203C343.508,540.822,343.508,538.591,340.785,537.21C337.639,535.828,334.058,535.828,330.913,537.21C328.19,538.591,328.19,540.822,330.913,542.203C334.054,543.604,337.643,543.604,340.785,542.203Z" fill="rgb(255,255,255)" stroke="none" stroke-width="1"/><path id="eJtAUhIPlH965" d="M377.986,561.078C380.709,559.697,380.709,557.447,377.986,556.066C374.84,554.684,371.259,554.684,368.114,556.066C365.391,557.447,365.391,559.697,368.114,561.078C371.259,562.46,374.84,562.46,377.986,561.078Z" fill="rgb(255,255,255)" stroke="none" stroke-width="1"/></g><g id="eJtAUhIPlH966"><path id="eJtAUhIPlH967" d="M361.986,662.203L360.095,658.42L466.421,604.5L468.312,608.282L361.986,662.203Z" fill="none" stroke="rgb(0,204,111)" stroke-width="2.5"/><path id="eJtAUhIPlH968" d="M380.615,671.641L378.724,667.858L485.05,613.957L486.941,617.74L380.615,671.641Z" fill="rgb(163,255,18)" stroke="none" stroke-width="1"/><path id="eJtAUhIPlH969" d="M343.489,652.804L341.598,649.021L447.943,595.101L449.834,598.883L343.489,652.804Z" fill="rgb(163,255,18)" stroke="none" stroke-width="1"/><path id="eJtAUhIPlH970" d="M347.461,653.428C350.184,652.047,350.184,649.797,347.461,648.416C344.315,647.034,340.734,647.034,337.589,648.416C334.866,649.797,334.866,652.047,337.589,653.428C340.734,654.81,344.315,654.81,347.461,653.428Z" fill="rgb(255,255,255)" stroke="none" stroke-width="1"/><path id="eJtAUhIPlH971" d="M366.052,662.865C368.775,661.466,368.775,659.234,366.052,657.853C362.906,656.471,359.325,656.471,356.18,657.853C353.457,659.234,353.457,661.465,356.18,662.865C359.325,664.247,362.906,664.247,366.052,662.865Z" fill="rgb(255,255,255)" stroke="none" stroke-width="1"/><path id="eJtAUhIPlH972" d="M384.681,672.284C387.404,670.903,387.404,668.672,384.681,667.291C381.539,665.89,377.95,665.89,374.809,667.291C372.086,668.672,372.086,670.903,374.809,672.284C377.954,673.665,381.535,673.665,384.681,672.284Z" fill="rgb(255,255,255)" stroke="none" stroke-width="1"/><path id="eJtAUhIPlH973" d="M453.787,599.527C456.51,598.146,456.51,595.915,453.787,594.534C450.645,593.133,447.056,593.133,443.915,594.534C441.192,595.915,441.192,598.146,443.915,599.527C447.061,600.909,450.641,600.909,453.787,599.527Z" fill="rgb(255,255,255)" stroke="none" stroke-width="1"/><path id="eJtAUhIPlH974" d="M472.397,608.983C475.12,607.602,475.12,605.352,472.397,603.971C469.251,602.589,465.67,602.589,462.525,603.971C459.802,605.352,459.802,607.602,462.525,608.983C465.671,610.365,469.251,610.365,472.397,608.983Z" fill="rgb(255,255,255)" stroke="none" stroke-width="1"/><path id="eJtAUhIPlH975" d="M490.988,618.44C493.711,617.059,493.711,614.828,490.988,613.447C487.842,612.065,484.261,612.065,481.116,613.447C478.393,614.828,478.393,617.059,481.116,618.44C484.262,619.821,487.842,619.821,490.988,618.44Z" fill="rgb(255,255,255)" stroke="none" stroke-width="1"/></g><g id="eJtAUhIPlH976"><path id="eJtAUhIPlH977" d="M475.045,719.508L473.154,715.725L579.48,661.938L581.371,665.721L475.045,719.508Z" fill="none" stroke="rgb(0,204,111)" stroke-width="2.5"/><path id="eJtAUhIPlH978" d="M493.636,728.927L491.745,725.144L598.128,671.395L600.019,675.177L493.636,728.927Z" fill="rgb(163,255,18)" stroke="none" stroke-width="1"/><path id="eJtAUhIPlH979" d="M456.548,710.109L454.657,706.326L561.002,652.482L562.893,656.264L456.548,710.109Z" fill="rgb(163,255,18)" stroke="none" stroke-width="1"/><path id="eJtAUhIPlH980" d="M460.463,710.733C463.186,709.352,463.186,707.102,460.463,705.721C457.317,704.339,453.736,704.339,450.591,705.721C447.868,707.102,447.868,709.352,450.591,710.733C453.737,712.115,457.318,712.115,460.463,710.733Z" fill="rgb(255,255,255)" stroke="none" stroke-width="1"/><path id="eJtAUhIPlH981" d="M479.073,720.151C481.796,718.77,481.796,716.539,479.073,715.158C475.934,713.777,472.359,713.777,469.22,715.158C466.497,716.539,466.497,718.77,469.22,720.151C472.36,721.528,475.933,721.528,479.073,720.151Z" fill="rgb(255,255,255)" stroke="none" stroke-width="1"/><path id="eJtAUhIPlH982" d="M497.664,729.589C500.387,728.208,500.387,725.958,497.664,724.577C494.518,723.195,490.937,723.195,487.792,724.577C485.069,725.958,485.069,728.208,487.792,729.589C490.938,730.97,494.519,730.97,497.664,729.589Z" fill="rgb(255,255,255)" stroke="none" stroke-width="1"/><path id="eJtAUhIPlH983" d="M566.809,656.813C569.532,655.432,569.532,653.182,566.809,651.801C563.663,650.419,560.082,650.419,556.937,651.801C554.214,653.182,554.214,655.432,556.937,656.813C560.082,658.195,563.663,658.195,566.809,656.813Z" fill="rgb(255,255,255)" stroke="none" stroke-width="1"/><path id="eJtAUhIPlH984" d="M585.4,666.232C588.123,664.851,588.123,662.62,585.4,661.239C582.254,659.857,578.673,659.857,575.528,661.239C572.805,662.62,572.805,664.851,575.528,666.232C578.669,667.632,582.258,667.632,585.4,666.232Z" fill="rgb(255,255,255)" stroke="none" stroke-width="1"/><path id="eJtAUhIPlH985" d="M604.066,675.669C606.808,674.288,606.808,672.057,604.066,670.657C600.927,669.276,597.352,669.276,594.213,670.657C591.471,672.038,591.471,674.288,594.213,675.669C597.352,677.05,600.927,677.05,604.066,675.669Z" fill="rgb(255,255,255)" stroke="none" stroke-width="1"/></g><g id="eJtAUhIPlH986"><path id="eJtAUhIPlH987" d="M744.019,745.891L687.83,717.409L687.83,668.671L691.934,668.671L691.934,714.893L745.835,742.222L744.019,745.891Z" fill="rgb(163,255,18)" stroke="none" stroke-width="1"/><path id="eJtAUhIPlH988" d="M762.515,736.454L714.042,711.868L714.042,655.32L718.146,655.32L718.146,709.296L764.349,732.729L762.515,736.454Z" fill="rgb(163,255,18)" stroke="none" stroke-width="1"/><path id="eJtAUhIPlH989" d="M781.106,727.017L740.35,706.365L740.35,642.062L744.454,642.062L744.454,703.849L782.941,723.367L781.106,727.017Z" fill="rgb(163,255,18)" stroke="none" stroke-width="1"/><path id="eJtAUhIPlH990" d="M739.896,746.534C743.042,747.916,746.623,747.916,749.768,746.534C752.491,745.153,752.491,742.903,749.768,741.522C746.622,740.14,743.041,740.14,739.896,741.522C737.173,742.903,737.173,745.154,739.896,746.534Z" fill="rgb(255,255,255)" stroke="none" stroke-width="1"/><path id="eJtAUhIPlH991" d="M711.149,657.853C714.295,659.235,717.876,659.235,721.021,657.853C723.744,656.453,723.744,654.222,721.021,652.841C717.875,651.459,714.294,651.459,711.149,652.841C708.426,654.222,708.426,656.454,711.149,657.853Z" fill="rgb(255,255,255)" stroke="none" stroke-width="1"/><path id="eJtAUhIPlH992" d="M684.861,671.187C688.007,672.569,691.588,672.569,694.733,671.187C697.456,669.806,697.456,667.556,694.733,666.175C691.587,664.793,688.006,664.793,684.861,666.175C682.137,667.612,682.137,669.806,684.861,671.187Z" fill="rgb(255,255,255)" stroke="none" stroke-width="1"/><path id="eJtAUhIPlH993" d="M758.487,737.097C761.633,738.479,765.214,738.479,768.359,737.097C771.082,735.716,771.082,733.485,768.359,732.104C765.217,730.703,761.628,730.703,758.487,732.104C755.764,733.485,755.764,735.697,758.487,737.097Z" fill="rgb(255,255,255)" stroke="none" stroke-width="1"/><path id="eJtAUhIPlH994" d="M777.097,727.679C780.243,729.061,783.824,729.061,786.969,727.679C789.692,726.279,789.692,724.048,786.969,722.667C783.823,721.285,780.242,721.285,777.097,722.667C774.374,724.047,774.374,726.241,777.097,727.679Z" fill="rgb(255,255,255)" stroke="none" stroke-width="1"/><path id="eJtAUhIPlH995" d="M737.456,644.501C740.602,645.883,744.183,645.883,747.328,644.501C750.051,643.12,750.051,640.889,747.328,639.508C744.182,638.126,740.601,638.126,737.456,639.508C734.733,640.889,734.733,643.121,737.456,644.501Z" fill="rgb(255,255,255)" stroke="none" stroke-width="1"/></g><g id="eJtAUhIPlH996"><path id="eJtAUhIPlH997" d="M794.345,616.038L1006.752,723.839" fill="none" stroke="rgb(61,132,192)" stroke-width="2.2" stroke-miterlimit="10"/><path id="eJtAUhIPlH998" d="M1043.045,706.761L830.222,598.865L832.113,595.083L1044.936,702.979L1043.045,706.761Z" fill="rgb(163,255,18)" stroke="none" stroke-width="1"/><path id="eJtAUhIPlH999" d="M1024.435,716.199L811.631,608.303L813.522,604.521L1026.326,712.436L1024.435,716.199Z" fill="none" stroke="rgb(0,204,111)" stroke-width="2.5"/><path id="eJtAUhIPlH9100" d="M1002.988,721.608C1000.265,722.989,1000.265,725.22,1002.988,726.601C1006.134,727.983,1009.715,727.983,1012.86,726.601C1015.583,725.22,1015.583,722.989,1012.86,721.608C1009.719,720.207,1006.13,720.207,1002.988,721.608Z" fill="rgb(255,255,255)" stroke="none" stroke-width="1"/><path id="eJtAUhIPlH9101" d="M1021.182,712C1018.459,713.381,1018.459,715.631,1021.182,717.012C1024.328,718.394,1027.909,718.394,1031.054,717.012C1033.777,715.631,1033.777,713.381,1031.054,712C1027.909,710.618,1024.328,710.618,1021.182,712Z" fill="rgb(255,255,255)" stroke="none" stroke-width="1"/><path id="eJtAUhIPlH9102" d="M1039.754,701.655C1037.031,703.036,1037.031,705.267,1039.754,706.648C1042.9,708.03,1046.481,708.03,1049.626,706.648C1052.349,705.267,1052.349,703.036,1049.626,701.655C1046.485,700.254,1042.896,700.254,1039.754,701.655Z" fill="rgb(255,255,255)" stroke="none" stroke-width="1"/><path id="eJtAUhIPlH9103" d="M789.409,613.541C786.686,614.922,786.686,617.153,789.409,618.534C792.555,619.916,796.136,619.916,799.281,618.534C802.004,617.153,802.004,614.922,799.281,613.541C796.136,612.16,792.555,612.16,789.409,613.541Z" fill="rgb(255,255,255)" stroke="none" stroke-width="1"/><path id="eJtAUhIPlH9104" d="M807.603,603.934C804.88,605.315,804.88,607.565,807.603,608.946C810.749,610.328,814.33,610.328,817.475,608.946C820.198,607.565,820.198,605.315,817.475,603.934C814.329,602.552,810.749,602.552,807.603,603.934Z" transform="matrix(1 0 0 1 0.000001 0)" fill="rgb(255,255,255)" stroke="none" stroke-width="1"/><path id="eJtAUhIPlH9105" d="M828.066,593.57C825.343,594.951,825.343,597.182,828.066,598.563C831.212,599.945,834.793,599.945,837.938,598.563C840.661,597.182,840.661,594.951,837.938,593.57C834.793,592.188,831.212,592.188,828.066,593.57Z" fill="rgb(255,255,255)" stroke="none" stroke-width="1"/></g><g id="eJtAUhIPlH9106"><path id="eJtAUhIPlH9107" d="M1045.787,592.832L1006.6,573.05L882.686,573.05L882.686,568.889L1007.509,568.889L1047.566,589.201L1045.787,592.832Z" fill="none" stroke="rgb(0,204,111)" stroke-width="2.5"/><path id="eJtAUhIPlH9108" d="M1064.397,583.395L1017.494,559.603L908.993,559.603L908.993,555.461L1018.459,555.461L1066.232,579.669L1064.397,583.395Z" fill="rgb(163,255,18)" stroke="none" stroke-width="1"/><path id="eJtAUhIPlH9109" d="M1082.988,573.957L1028.388,546.269L935.3,546.269L935.3,542.127L1029.352,542.127L1084.822,570.25L1082.988,573.957Z" fill="rgb(163,255,18)" stroke="none" stroke-width="1"/><path id="eJtAUhIPlH9110" d="M1041.778,588.463C1039.055,589.844,1039.055,592.094,1041.778,593.475C1044.924,594.857,1048.505,594.857,1051.65,593.475C1054.373,592.094,1054.373,589.844,1051.65,588.463C1048.504,587.082,1044.924,587.082,1041.778,588.463Z" fill="rgb(255,255,255)" stroke="none" stroke-width="1"/><path id="eJtAUhIPlH9111" d="M1060.369,579.026C1057.646,580.407,1057.646,582.657,1060.369,584.038C1063.515,585.42,1067.096,585.42,1070.241,584.038C1072.964,582.657,1072.964,580.407,1070.241,579.026C1067.095,577.644,1063.515,577.644,1060.369,579.026Z" fill="rgb(255,255,255)" stroke="none" stroke-width="1"/><path id="eJtAUhIPlH9112" d="M1078.979,569.608C1076.256,570.989,1076.256,573.22,1078.979,574.601C1082.125,575.983,1085.706,575.983,1088.851,574.601C1091.574,573.22,1091.574,570.989,1088.851,569.608C1085.705,568.226,1082.125,568.226,1078.979,569.608Z" fill="rgb(255,255,255)" stroke="none" stroke-width="1"/><path id="eJtAUhIPlH9113" d="M877.749,568.378C875.026,569.759,875.026,571.99,877.749,573.371C880.895,574.753,884.476,574.753,887.621,573.371C890.344,571.99,890.344,569.759,887.621,568.378C884.48,566.978,880.891,566.978,877.749,568.378Z" fill="rgb(255,255,255)" stroke="none" stroke-width="1"/><path id="eJtAUhIPlH9114" d="M904.057,555.026C901.334,556.407,901.334,558.657,904.057,560.038C907.203,561.42,910.784,561.42,913.929,560.038C916.652,558.657,916.652,556.407,913.929,555.026C910.783,553.644,907.202,553.644,904.057,555.026Z" fill="rgb(255,255,255)" stroke="none" stroke-width="1"/><path id="eJtAUhIPlH9115" d="M930.364,541.693C927.641,543.074,927.641,545.324,930.364,546.705C933.51,548.087,937.091,548.087,940.236,546.705C942.959,545.324,942.959,543.074,940.236,541.693C937.091,540.311,933.51,540.311,930.364,541.693Z" fill="rgb(255,255,255)" stroke="none" stroke-width="1"/></g><g id="eJtAUhIPlH9116"><path id="eJtAUhIPlH9117" d="M821.56,438.033L819.669,434.25L925.995,380.33L927.886,384.113L821.56,438.033Z" fill="none" stroke="rgb(0,204,111)" stroke-width="2.5"/><path id="eJtAUhIPlH9118" d="M840.095,447.47L838.204,443.687L944.549,389.767L946.44,393.55L840.095,447.47Z" fill="rgb(163,255,18)" stroke="none" stroke-width="1"/><path id="eJtAUhIPlH9119" d="M802.969,428.634L801.078,424.851L907.423,370.931L909.314,374.714L802.969,428.634Z" fill="rgb(163,255,18)" stroke="none" stroke-width="1"/><path id="eJtAUhIPlH9120" d="M950.468,394.194C953.191,392.813,953.191,390.582,950.468,389.182C947.322,387.8,943.741,387.8,940.596,389.182C937.873,390.582,937.873,392.813,940.596,394.194C943.742,395.576,947.322,395.576,950.468,394.194Z" fill="rgb(255,255,255)" stroke="none" stroke-width="1"/><path id="eJtAUhIPlH9121" d="M931.877,384.757C934.6,383.376,934.6,381.145,931.877,379.764C928.731,378.382,925.15,378.382,922.005,379.764C919.282,381.145,919.282,383.376,922.005,384.776C925.151,386.16,928.736,386.154,931.877,384.757Z" fill="rgb(255,255,255)" stroke="none" stroke-width="1"/><path id="eJtAUhIPlH9122" d="M913.267,375.338C915.99,373.957,915.99,371.707,913.267,370.326C910.121,368.944,906.54,368.944,903.395,370.326C900.672,371.707,900.672,373.957,903.395,375.338C906.541,376.72,910.121,376.72,913.267,375.338Z" fill="rgb(255,255,255)" stroke="none" stroke-width="1"/><path id="eJtAUhIPlH9123" d="M844.123,448.113C846.865,446.732,846.865,444.482,844.123,443.101C840.984,441.72,837.409,441.72,834.27,443.101C831.528,444.482,831.528,446.732,834.27,448.113C837.409,449.494,840.984,449.494,844.123,448.113Z" fill="rgb(255,255,255)" stroke="none" stroke-width="1"/><path id="eJtAUhIPlH9124" d="M825.532,438.771C828.255,437.39,828.255,435.159,825.532,433.778C822.386,432.396,818.805,432.396,815.66,433.778C812.937,435.159,812.937,437.39,815.66,438.771C818.805,440.152,822.386,440.152,825.532,438.771Z" fill="rgb(255,255,255)" stroke="none" stroke-width="1"/><path id="eJtAUhIPlH9125" d="M806.941,429.314C809.664,427.933,809.664,425.683,806.941,424.302C803.795,422.92,800.214,422.92,797.069,424.302C794.346,425.683,794.346,427.933,797.069,429.314C800.214,430.696,803.795,430.696,806.941,429.314Z" fill="rgb(255,255,255)" stroke="none" stroke-width="1"/></g><g id="eJtAUhIPlH9126_to" transform="translate(649.228958,304.633507)"><g id="eJtAUhIPlH9126" transform="translate(-649.228958,-304.633507)"><g id="eJtAUhIPlH9127"><path id="eJtAUhIPlH9128" d="M839.981,186.175C777.456,147.631,722.912,106.894,682.118,62.411C641.324,65.569,586.78,51.063,524.255,26.118L507.612,34.534L530.477,208.529L840.018,249.286L839.981,186.175Z" fill="url(#eJtAUhIPlH9128-fill)" stroke="none" stroke-width="1"/><path id="eJtAUhIPlH9129" d="M679.716,525.485L691.669,544.984L737.967,523.745L767.811,506.724C795.102,489.703,840.019,448.814,840.019,398.696L840.019,186.176L823.338,194.63L679.716,525.485Z" fill="url(#eJtAUhIPlH9129-fill)" stroke="none" stroke-width="1"/><path id="eJtAUhIPlH9130" d="M665.437,70.827C624.643,73.985,570.099,59.479,507.574,34.534L507.574,247.111C507.574,401.059,665.437,558.26,665.437,558.26C665.437,558.26,823.3,505.74,823.3,407.206L823.3,194.629C760.794,156.085,706.194,115.366,665.437,70.827Z" fill="url(#eJtAUhIPlH9130-fill)" stroke="none" stroke-width="1"/></g><g id="eJtAUhIPlH9131"><path id="eJtAUhIPlH9132" d="M815.452,198.582C752.927,160.038,698.383,119.32,657.589,74.8C616.795,77.939,562.232,63.358,499.726,38.507L483.026,46.98L505.891,220.975L815.451,261.75L815.451,198.582Z" fill="url(#eJtAUhIPlH9132-fill)" stroke="none" stroke-width="1"/><path id="eJtAUhIPlH9133" d="M655.13,537.91L667.083,557.428L713.381,536.17L743.206,519.149C770.516,502.128,815.433,461.22,815.433,411.102L815.433,198.582L798.866,207.055L655.13,537.91Z" fill="url(#eJtAUhIPlH9133-fill)" stroke="none" stroke-width="1"/><path id="eJtAUhIPlH9134" d="M640.908,83.215C600.114,86.411,545.57,71.867,483.026,46.979L483.026,259.556C483.026,413.504,640.889,570.705,640.889,570.705C640.889,570.705,798.865,518.204,798.865,419.632L798.865,207.054C736.246,168.53,681.702,127.792,640.908,83.215Z" fill="url(#eJtAUhIPlH9134-fill)" stroke="none" stroke-width="1"/></g><g id="eJtAUhIPlH9135"><g id="eJtAUhIPlH9136"><path id="eJtAUhIPlH9137" d="M790.922,211.045C728.397,172.501,673.853,131.764,633.059,87.244C592.265,90.402,537.702,75.896,475.177,50.951L458.439,59.424L481.304,233.419L790.921,274.232L790.921,211.045Z" fill="url(#eJtAUhIPlH9137-fill)" stroke="none" stroke-width="1"/><path id="eJtAUhIPlH9138" d="M630.544,550.355L642.516,569.854L688.795,548.615L718.639,531.594C745.93,514.573,790.866,473.684,790.866,423.566L790.866,211.046L774.28,219.5L630.544,550.355Z" fill="url(#eJtAUhIPlH9138-fill)" stroke="none" stroke-width="1"/><path id="eJtAUhIPlH9139" d="M616.378,95.697C575.584,98.855,521.04,84.349,458.515,59.423L458.515,272C458.515,425.929,616.378,583.149,616.378,583.149C616.378,583.149,774.279,530.629,774.279,432.076L774.279,219.499C711.716,180.955,657.173,140.217,616.378,95.697Z" fill="url(#eJtAUhIPlH9139-fill)" stroke="none" stroke-width="1"/><path id="eJtAUhIPlH9140" d="M616.378,135.565C581.825,138.232,535.64,125.882,482.685,104.832L482.685,284.841C482.685,415.224,616.378,548.349,616.378,548.349C616.378,548.349,750.071,503.867,750.071,420.425L750.071,240.397C697.116,207.754,650.931,173.258,616.378,135.565Z" fill="url(#eJtAUhIPlH9140-fill)" stroke="none" stroke-width="1"/><path id="eJtAUhIPlH9141" d="M616.378,135.565C581.825,138.232,535.64,125.882,482.685,104.832L482.685,284.841C482.685,415.224,616.378,548.349,616.378,548.349C616.378,548.349,750.071,503.867,750.071,420.425L750.071,240.397C697.116,207.754,650.931,173.258,616.378,135.565Z" fill="url(#eJtAUhIPlH9141-fill)" stroke="none" stroke-width="1"/><path id="eJtAUhIPlH9142" d="M616.378,135.565C581.825,138.232,535.64,125.882,482.685,104.832L482.685,284.841C482.685,415.224,616.378,548.349,616.378,548.349L616.378,135.565Z" fill="url(#eJtAUhIPlH9142-fill)" stroke="none" stroke-width="1"/></g><g id="eJtAUhIPlH9143"><mask id="eJtAUhIPlH9144" mask-type="luminance"><g id="eJtAUhIPlH9145" mask="none"><g id="eJtAUhIPlH9146" transform="matrix(1 0 0 1 616.37854 326.259995)"><path id="eJtAUhIPlH9147" d="M670.374,185.191L482.686,280.302L482.686,284.841C482.686,324.973,495.357,365.352,512.946,402.099L750.071,281.796L750.071,240.396C722.439,223.584,695.827,205.15,670.374,185.191ZM550.79,467.329L750.071,366.336L750.071,303.433L521.589,419.234C530.457,435.775,540.205,451.83,550.79,467.329Z" fill="url(#eJtAUhIPlH9147-fill)" stroke="none" stroke-width="1"/></g></g></mask></g><g id="eJtAUhIPlH9148"><path id="eJtAUhIPlH9149" d="M670.374,185.191L482.686,280.302L482.686,284.841C482.686,324.973,495.357,365.352,512.946,402.099L750.071,281.796L750.071,240.396C722.439,223.584,695.827,205.15,670.374,185.191ZM550.79,467.329L750.071,366.336L750.071,303.433L521.589,419.234C530.457,435.775,540.205,451.83,550.79,467.329Z" opacity="0.3" fill="url(#eJtAUhIPlH9149-fill)" stroke="none" stroke-width="1"/></g></g></g></g><g id="eJtAUhIPlH9150"><path id="eJtAUhIPlH9151" d="M933.693,494.014L931.802,490.231L1038.128,436.311L1040.019,440.094L933.693,494.014Z" fill="none" stroke="rgb(0,204,111)" stroke-width="2.5"/><path id="eJtAUhIPlH9152" d="M952.284,503.433L950.393,499.65L1056.738,445.749L1058.629,449.532L952.284,503.433Z" fill="rgb(163,255,18)" stroke="none" stroke-width="1"/><path id="eJtAUhIPlH9153" d="M915.158,484.596L913.267,480.813L1019.612,426.893L1021.503,430.676L915.158,484.596Z" fill="rgb(163,255,18)" stroke="none" stroke-width="1"/><path id="eJtAUhIPlH9154" d="M1062.657,450.118C1065.38,448.737,1065.38,446.506,1062.657,445.125C1059.511,443.743,1055.93,443.743,1052.785,445.125C1050.062,446.506,1050.062,448.737,1052.785,450.118C1055.931,451.5,1059.512,451.5,1062.657,450.118Z" fill="rgb(255,255,255)" stroke="none" stroke-width="1"/><path id="eJtAUhIPlH9155" d="M1044.066,440.662C1046.79,439.281,1046.79,437.031,1044.066,435.65C1040.92,434.268,1037.339,434.268,1034.194,435.65C1031.471,437.031,1031.471,439.281,1034.194,440.662C1037.34,442.044,1040.921,442.044,1044.066,440.662Z" fill="rgb(255,255,255)" stroke="none" stroke-width="1"/><path id="eJtAUhIPlH9156" d="M1025.456,431.3C1028.179,429.919,1028.179,427.688,1025.456,426.307C1022.312,424.916,1018.727,424.916,1015.584,426.307C1012.861,427.688,1012.861,429.919,1015.584,431.3C1018.73,432.682,1022.311,432.682,1025.456,431.3Z" fill="rgb(255,255,255)" stroke="none" stroke-width="1"/><path id="eJtAUhIPlH9157" d="M956.312,504.076C959.054,502.695,959.054,500.464,956.312,499.083C953.173,497.702,949.598,497.702,946.459,499.083C943.717,500.464,943.717,502.695,946.459,504.076C949.598,505.457,953.173,505.457,956.312,504.076Z" fill="rgb(255,255,255)" stroke="none" stroke-width="1"/><path id="eJtAUhIPlH9158" d="M937.721,494.657C940.444,493.276,940.444,491.026,937.721,489.645C934.575,488.263,930.994,488.263,927.849,489.645C925.126,491.026,925.126,493.276,927.849,494.657C930.994,496.039,934.575,496.039,937.721,494.657Z" fill="rgb(255,255,255)" stroke="none" stroke-width="1"/><path id="eJtAUhIPlH9159" d="M919.13,485.22C921.853,483.839,921.853,481.589,919.13,480.208C915.984,478.826,912.403,478.826,909.258,480.208C906.535,481.589,906.535,483.839,909.258,485.22C912.403,486.602,915.984,486.602,919.13,485.22Z" fill="rgb(255,255,255)" stroke="none" stroke-width="1"/></g></g></g></svg>