<?xml version="1.0" encoding="utf-8"?>
<!-- Generator: Adobe Illustrator 17.0.0, SVG Export Plug-In . SVG Version: 6.00 Build 0)  -->
<!DOCTYPE svg PUBLIC "-//W3C//DTD SVG 1.1//EN" "http://www.w3.org/Graphics/SVG/1.1/DTD/svg11.dtd">
<svg version="1.1" id="Layer_1" xmlns="http://www.w3.org/2000/svg" xmlns:xlink="http://www.w3.org/1999/xlink" x="0px" y="0px"
	 width="50px" height="48.473px" viewBox="0 0 50 48.473" enable-background="new 0 0 50 48.473" xml:space="preserve">
<g>
	<g>
		<g>
			<g>
				<path fill="#656D79" d="M40.294,36.92H37.28V16.808h3.014c5.352,0,9.706,4.354,9.706,9.706v0.7
					C50,32.565,45.646,36.92,40.294,36.92z M41.28,20.892v11.942c2.678-0.469,4.72-2.81,4.72-5.621v-0.7
					C46,23.703,43.958,21.361,41.28,20.892z"/>
			</g>
			<g>
				<path fill="#656D79" d="M9.706,36.92L9.706,36.92C4.346,36.92,0,32.574,0,27.214v-0.7c0-5.361,4.346-9.706,9.706-9.706h3.014
					v17.099C12.72,35.571,11.371,36.92,9.706,36.92z M8.72,20.892C6.042,21.361,4,23.703,4,26.514v0.7
					c0,2.811,2.042,5.152,4.72,5.621V20.892z"/>
			</g>
			<g>
				<path fill="#656D79" d="M25,47.472v-4c6.771,0,12.28-5.509,12.28-12.279V16.639c0-6.391-4.734-11.985-11.096-12.583
					C18.882,3.369,12.72,9.118,12.72,16.28v17.626c0,1.664-1.349,3.014-3.014,3.014H8.72V16.712c0-9.106,7.451-16.861,16.556-16.709
					C34.126,0.15,41.28,7.396,41.28,16.28v14.912C41.28,40.169,33.977,47.472,25,47.472z"/>
			</g>
		</g>
		<g>
			<circle fill="#656D79" cx="23.809" cy="45.634" r="2.839"/>
		</g>
	</g>
	<path fill="#656D79" d="M30.968,22.762H18.385c-1.105,0-2,0.896-2,2c0,1.105,0.895,2,2,2h12.583c1.105,0,2-0.895,2-2
		C32.968,23.658,32.072,22.762,30.968,22.762z"/>
</g>
</svg>
