<svg id="Layer_1" data-name="Layer 1" xmlns="http://www.w3.org/2000/svg" viewBox="0 0 45.38 44.15"><defs><style>.cls-1{fill:#656d79;}</style></defs><path class="cls-1" d="M42,33.38H36.67a3,3,0,0,1-3-3v-5a3,3,0,0,1,3-3H42a3,3,0,0,1,3,3v5A3,3,0,0,1,42,33.38Zm0-8-5.28,0,0,5,5.25,0Z" transform="translate(0)"/><path class="cls-1" d="M38,44.15H7.36A7.37,7.37,0,0,1,0,36.79V8.09H4v28.7a3.37,3.37,0,0,0,3.36,3.36H38a3.37,3.37,0,0,0,3.36-3.36V18.57A3.37,3.37,0,0,0,38,15.21H7.37v-4H38a7.37,7.37,0,0,1,7.36,7.36V36.79A7.37,7.37,0,0,1,38,44.15Z" transform="translate(0)"/><path class="cls-1" d="M7.61,15.21A7.62,7.62,0,0,1,.06,6.61,7.8,7.8,0,0,1,7.87,0H34.74a6.38,6.38,0,0,1,6.38,6.38V7.67a2,2,0,0,1-2,2h0a2,2,0,0,1-2-2V6.38A2.38,2.38,0,0,0,34.74,4h-27A3.66,3.66,0,0,0,4.08,6.85a3.61,3.61,0,0,0,3.53,4.36Z" transform="translate(0)"/></svg>